<mxfile host="app.diagrams.net" modified="2020-09-02T10:50:49.110Z" agent="5.0 (Windows NT 10.0; Win64; x64) AppleWebKit/537.36 (KHTML, like Gecko) Chrome/81.0.4044.122 Safari/537.36" etag="ETmBVN0MGOe5TXM6xqH5" version="13.6.6" type="github" pages="3">
  <diagram id="YmtXKCmnwTOULjIF3YA8" name="Page-1">
    <mxGraphModel dx="2062" dy="1106" grid="1" gridSize="10" guides="1" tooltips="1" connect="1" arrows="1" fold="1" page="1" pageScale="1" pageWidth="850" pageHeight="1100" math="0" shadow="0">
      <root>
        <mxCell id="0" />
        <mxCell id="1" parent="0" />
        <mxCell id="WIWhIKJ0JJs7HtybIRrX-255" value="" style="rounded=0;whiteSpace=wrap;html=1;fillColor=#EDEDED;" parent="1" vertex="1">
          <mxGeometry y="1.25" width="490" height="199.75" as="geometry" />
        </mxCell>
        <mxCell id="WIWhIKJ0JJs7HtybIRrX-243" value="" style="rounded=0;whiteSpace=wrap;html=1;fillColor=#d5e8d4;strokeColor=#82b366;" parent="1" vertex="1">
          <mxGeometry x="920" y="918.63" width="360" height="470" as="geometry" />
        </mxCell>
        <mxCell id="WIWhIKJ0JJs7HtybIRrX-118" value="" style="rounded=0;whiteSpace=wrap;html=1;strokeColor=#d79b00;fillColor=#D4E1F5;" parent="1" vertex="1">
          <mxGeometry x="500" y="1" width="1420" height="770" as="geometry" />
        </mxCell>
        <mxCell id="WIWhIKJ0JJs7HtybIRrX-137" value="" style="rounded=0;whiteSpace=wrap;html=1;" parent="1" vertex="1">
          <mxGeometry x="640" y="557.25" width="390" height="202.75" as="geometry" />
        </mxCell>
        <mxCell id="WIWhIKJ0JJs7HtybIRrX-96" value="" style="rounded=0;whiteSpace=wrap;html=1;" parent="1" vertex="1">
          <mxGeometry x="520" y="10" width="410" height="510" as="geometry" />
        </mxCell>
        <mxCell id="WIWhIKJ0JJs7HtybIRrX-49" value="" style="rounded=0;orthogonalLoop=1;jettySize=auto;html=1;startArrow=classic;startFill=1;" parent="1" source="WIWhIKJ0JJs7HtybIRrX-40" target="WIWhIKJ0JJs7HtybIRrX-5" edge="1">
          <mxGeometry relative="1" as="geometry" />
        </mxCell>
        <mxCell id="WIWhIKJ0JJs7HtybIRrX-5" value="Enable DB" style="verticalLabelPosition=bottom;html=1;verticalAlign=top;align=center;strokeColor=none;fillColor=#00BEF2;shape=mxgraph.azure.sql_database;" parent="1" vertex="1">
          <mxGeometry x="728" y="820" width="37.5" height="50" as="geometry" />
        </mxCell>
        <mxCell id="WIWhIKJ0JJs7HtybIRrX-6" value="ACV2" style="verticalLabelPosition=bottom;html=1;verticalAlign=top;align=center;strokeColor=none;fillColor=#00BEF2;shape=mxgraph.azure.azure_website;pointerEvents=1;" parent="1" vertex="1">
          <mxGeometry x="507.75" y="697" width="50" height="50" as="geometry" />
        </mxCell>
        <mxCell id="WIWhIKJ0JJs7HtybIRrX-18" value="" style="edgeStyle=orthogonalEdgeStyle;rounded=0;orthogonalLoop=1;jettySize=auto;html=1;" parent="1" source="WIWhIKJ0JJs7HtybIRrX-7" target="WIWhIKJ0JJs7HtybIRrX-9" edge="1">
          <mxGeometry relative="1" as="geometry" />
        </mxCell>
        <mxCell id="WIWhIKJ0JJs7HtybIRrX-7" value="Time Triggered Function" style="verticalLabelPosition=bottom;html=1;verticalAlign=top;align=center;strokeColor=none;fillColor=#00BEF2;shape=mxgraph.azure.scheduler;pointerEvents=1;" parent="1" vertex="1">
          <mxGeometry x="53" y="46" width="40" height="50" as="geometry" />
        </mxCell>
        <mxCell id="WIWhIKJ0JJs7HtybIRrX-22" value="" style="edgeStyle=orthogonalEdgeStyle;rounded=0;orthogonalLoop=1;jettySize=auto;html=1;" parent="1" source="WIWhIKJ0JJs7HtybIRrX-9" target="WIWhIKJ0JJs7HtybIRrX-21" edge="1">
          <mxGeometry relative="1" as="geometry" />
        </mxCell>
        <mxCell id="WIWhIKJ0JJs7HtybIRrX-9" value="Publish a saga message" style="shape=process;whiteSpace=wrap;html=1;backgroundOutline=1;" parent="1" vertex="1">
          <mxGeometry x="173" y="41" width="150" height="60" as="geometry" />
        </mxCell>
        <mxCell id="WIWhIKJ0JJs7HtybIRrX-21" value="&lt;br&gt;Generate&lt;span&gt;Persistence&lt;/span&gt;&lt;span&gt;&lt;br&gt;&lt;/span&gt;" style="verticalLabelPosition=bottom;html=1;verticalAlign=top;align=center;strokeColor=none;fillColor=#00BEF2;shape=mxgraph.azure.message;pointerEvents=1;" parent="1" vertex="1">
          <mxGeometry x="400" y="52.5" width="50" height="37.5" as="geometry" />
        </mxCell>
        <mxCell id="WIWhIKJ0JJs7HtybIRrX-24" value="Azure Blob Storage" style="verticalLabelPosition=bottom;html=1;verticalAlign=top;align=center;strokeColor=none;fillColor=#00BEF2;shape=mxgraph.azure.storage_blob;" parent="1" vertex="1">
          <mxGeometry x="1338" y="1079.5" width="50" height="45" as="geometry" />
        </mxCell>
        <mxCell id="WIWhIKJ0JJs7HtybIRrX-25" value="&lt;br&gt;PersistenceGenerationSaga" style="verticalLabelPosition=bottom;html=1;verticalAlign=top;align=center;strokeColor=none;fillColor=#00BEF2;shape=mxgraph.azure.load_balancer_generic;pointerEvents=1;" parent="1" vertex="1">
          <mxGeometry x="702" y="41" width="37.5" height="50" as="geometry" />
        </mxCell>
        <mxCell id="WIWhIKJ0JJs7HtybIRrX-33" value="&lt;span&gt;GetMembersV1&lt;br&gt;&lt;/span&gt;" style="verticalLabelPosition=bottom;html=1;verticalAlign=top;align=center;strokeColor=none;fillColor=#00BEF2;shape=mxgraph.azure.message;pointerEvents=1;" parent="1" vertex="1">
          <mxGeometry x="607.75" y="430" width="50" height="37.5" as="geometry" />
        </mxCell>
        <mxCell id="WIWhIKJ0JJs7HtybIRrX-35" value="Publish message" style="shape=process;whiteSpace=wrap;html=1;backgroundOutline=1;" parent="1" vertex="1">
          <mxGeometry x="557.75" y="342.75" width="150" height="60" as="geometry" />
        </mxCell>
        <mxCell id="WIWhIKJ0JJs7HtybIRrX-41" value="" style="edgeStyle=orthogonalEdgeStyle;rounded=0;orthogonalLoop=1;jettySize=auto;html=1;" parent="1" source="WIWhIKJ0JJs7HtybIRrX-38" target="WIWhIKJ0JJs7HtybIRrX-40" edge="1">
          <mxGeometry relative="1" as="geometry" />
        </mxCell>
        <mxCell id="WIWhIKJ0JJs7HtybIRrX-38" value="GetMembersHandler" style="verticalLabelPosition=bottom;html=1;verticalAlign=top;align=center;strokeColor=none;fillColor=#00BEF2;shape=mxgraph.azure.traffic_manager;pointerEvents=1;" parent="1" vertex="1">
          <mxGeometry x="721.75" y="579.75" width="50" height="50" as="geometry" />
        </mxCell>
        <mxCell id="WIWhIKJ0JJs7HtybIRrX-40" value="Get list of members" style="shape=process;whiteSpace=wrap;html=1;backgroundOutline=1;" parent="1" vertex="1">
          <mxGeometry x="671.75" y="682" width="150" height="60" as="geometry" />
        </mxCell>
        <mxCell id="WIWhIKJ0JJs7HtybIRrX-48" value="" style="edgeStyle=orthogonalEdgeStyle;rounded=0;orthogonalLoop=1;jettySize=auto;html=1;" parent="1" source="WIWhIKJ0JJs7HtybIRrX-45" target="WIWhIKJ0JJs7HtybIRrX-47" edge="1">
          <mxGeometry relative="1" as="geometry" />
        </mxCell>
        <mxCell id="WIWhIKJ0JJs7HtybIRrX-45" value="&lt;span&gt;Publish a message with a list of members&lt;/span&gt;" style="shape=process;whiteSpace=wrap;html=1;backgroundOutline=1;" parent="1" vertex="1">
          <mxGeometry x="858" y="682" width="140" height="60" as="geometry" />
        </mxCell>
        <mxCell id="WIWhIKJ0JJs7HtybIRrX-47" value="&lt;span&gt;MembersFoundMessage&lt;br&gt;&lt;/span&gt;" style="verticalLabelPosition=bottom;html=1;verticalAlign=top;align=center;strokeColor=none;fillColor=#00BEF2;shape=mxgraph.azure.message;pointerEvents=1;" parent="1" vertex="1">
          <mxGeometry x="903" y="579.75" width="50" height="37.5" as="geometry" />
        </mxCell>
        <mxCell id="WIWhIKJ0JJs7HtybIRrX-50" value="Publish a message&lt;br&gt;for each member" style="shape=process;whiteSpace=wrap;html=1;backgroundOutline=1;" parent="1" vertex="1">
          <mxGeometry x="721.75" y="342.75" width="150" height="60" as="geometry" />
        </mxCell>
        <mxCell id="WIWhIKJ0JJs7HtybIRrX-70" value="&lt;span&gt;GetStaticData&lt;br&gt;&lt;/span&gt;" style="verticalLabelPosition=bottom;html=1;verticalAlign=top;align=center;strokeColor=none;fillColor=#00BEF2;shape=mxgraph.azure.message;pointerEvents=1;" parent="1" vertex="1">
          <mxGeometry x="771.75" y="430" width="50" height="37.5" as="geometry" />
        </mxCell>
        <mxCell id="WIWhIKJ0JJs7HtybIRrX-119" value="&lt;span&gt;Handle Members&lt;br&gt;Found&lt;br&gt;Message&lt;/span&gt;" style="shape=process;whiteSpace=wrap;html=1;backgroundOutline=1;" parent="1" vertex="1">
          <mxGeometry x="731.75" y="144.75" width="130" height="60" as="geometry" />
        </mxCell>
        <mxCell id="WIWhIKJ0JJs7HtybIRrX-120" value="&lt;font style=&quot;font-size: 10px&quot;&gt;Is &lt;br&gt;Members &lt;br&gt;Found&lt;br&gt;Message &lt;br&gt;found&lt;/font&gt;" style="rhombus;whiteSpace=wrap;html=1;" parent="1" vertex="1">
          <mxGeometry x="751.75" y="230.25" width="90" height="92.75" as="geometry" />
        </mxCell>
        <mxCell id="WIWhIKJ0JJs7HtybIRrX-131" value="&lt;span&gt;Handle&lt;/span&gt;&lt;br&gt;&lt;span&gt;Generate&amp;nbsp;&lt;br&gt;&lt;/span&gt;&lt;span&gt;Persistence&lt;/span&gt;&lt;span&gt;&lt;br&gt;Message&lt;/span&gt;" style="shape=process;whiteSpace=wrap;html=1;backgroundOutline=1;" parent="1" vertex="1">
          <mxGeometry x="567.75" y="145" width="130" height="60" as="geometry" />
        </mxCell>
        <mxCell id="WIWhIKJ0JJs7HtybIRrX-132" value="&lt;font&gt;&lt;span style=&quot;font-size: 10px&quot;&gt;Is &lt;/span&gt;&lt;br&gt;&lt;div&gt;&lt;/div&gt;&lt;span style=&quot;font-size: 10px&quot;&gt;Generate&lt;br&gt;Persistence&lt;/span&gt;&lt;br&gt;&lt;span style=&quot;font-size: 10px&quot;&gt;Message &lt;/span&gt;&lt;br&gt;&lt;span style=&quot;font-size: 10px&quot;&gt;found&lt;/span&gt;&lt;/font&gt;" style="rhombus;whiteSpace=wrap;html=1;" parent="1" vertex="1">
          <mxGeometry x="587.75" y="230" width="90" height="92.75" as="geometry" />
        </mxCell>
        <mxCell id="WIWhIKJ0JJs7HtybIRrX-133" value="" style="endArrow=classic;html=1;entryX=0.5;entryY=0;entryDx=0;entryDy=0;exitX=0.5;exitY=1;exitDx=0;exitDy=0;" parent="1" source="WIWhIKJ0JJs7HtybIRrX-131" target="WIWhIKJ0JJs7HtybIRrX-132" edge="1">
          <mxGeometry width="50" height="50" relative="1" as="geometry">
            <mxPoint x="756" y="240" as="sourcePoint" />
            <mxPoint x="806" y="190" as="targetPoint" />
          </mxGeometry>
        </mxCell>
        <mxCell id="WIWhIKJ0JJs7HtybIRrX-136" value="" style="endArrow=classic;html=1;entryX=0.5;entryY=0;entryDx=0;entryDy=0;" parent="1" source="WIWhIKJ0JJs7HtybIRrX-25" target="WIWhIKJ0JJs7HtybIRrX-131" edge="1">
          <mxGeometry width="50" height="50" relative="1" as="geometry">
            <mxPoint x="770" y="120" as="sourcePoint" />
            <mxPoint x="820" y="70" as="targetPoint" />
          </mxGeometry>
        </mxCell>
        <mxCell id="WIWhIKJ0JJs7HtybIRrX-138" value="" style="endArrow=classic;html=1;exitX=1;exitY=0.5;exitDx=0;exitDy=0;entryX=0;entryY=0.5;entryDx=0;entryDy=0;" parent="1" source="WIWhIKJ0JJs7HtybIRrX-40" target="WIWhIKJ0JJs7HtybIRrX-45" edge="1">
          <mxGeometry width="50" height="50" relative="1" as="geometry">
            <mxPoint x="810" y="740" as="sourcePoint" />
            <mxPoint x="860" y="690" as="targetPoint" />
          </mxGeometry>
        </mxCell>
        <mxCell id="WIWhIKJ0JJs7HtybIRrX-143" value="" style="endArrow=classic;html=1;" parent="1" source="WIWhIKJ0JJs7HtybIRrX-132" edge="1">
          <mxGeometry width="50" height="50" relative="1" as="geometry">
            <mxPoint x="632.75" y="372.75" as="sourcePoint" />
            <mxPoint x="633" y="340" as="targetPoint" />
          </mxGeometry>
        </mxCell>
        <mxCell id="WIWhIKJ0JJs7HtybIRrX-149" value="Yes" style="edgeLabel;html=1;align=center;verticalAlign=middle;resizable=0;points=[];" parent="WIWhIKJ0JJs7HtybIRrX-143" vertex="1" connectable="0">
          <mxGeometry x="0.4096" relative="1" as="geometry">
            <mxPoint x="13.02" y="-4.79" as="offset" />
          </mxGeometry>
        </mxCell>
        <mxCell id="WIWhIKJ0JJs7HtybIRrX-144" value="" style="endArrow=classic;html=1;" parent="1" source="WIWhIKJ0JJs7HtybIRrX-35" edge="1">
          <mxGeometry width="50" height="50" relative="1" as="geometry">
            <mxPoint x="632.75" y="452.75" as="sourcePoint" />
            <mxPoint x="633" y="430" as="targetPoint" />
          </mxGeometry>
        </mxCell>
        <mxCell id="WIWhIKJ0JJs7HtybIRrX-147" value="" style="endArrow=classic;html=1;exitX=1;exitY=0.5;exitDx=0;exitDy=0;entryX=1;entryY=1;entryDx=0;entryDy=0;" parent="1" source="WIWhIKJ0JJs7HtybIRrX-132" target="WIWhIKJ0JJs7HtybIRrX-131" edge="1">
          <mxGeometry width="50" height="50" relative="1" as="geometry">
            <mxPoint x="686" y="290" as="sourcePoint" />
            <mxPoint x="736" y="240" as="targetPoint" />
            <Array as="points">
              <mxPoint x="698" y="276" />
              <mxPoint x="698" y="240" />
            </Array>
          </mxGeometry>
        </mxCell>
        <mxCell id="WIWhIKJ0JJs7HtybIRrX-150" value="No" style="edgeLabel;html=1;align=center;verticalAlign=middle;resizable=0;points=[];" parent="WIWhIKJ0JJs7HtybIRrX-147" vertex="1" connectable="0">
          <mxGeometry x="-0.5561" y="15" relative="1" as="geometry">
            <mxPoint x="24.75" y="-16.03" as="offset" />
          </mxGeometry>
        </mxCell>
        <mxCell id="WIWhIKJ0JJs7HtybIRrX-152" value="" style="endArrow=classic;html=1;entryX=0.5;entryY=0;entryDx=0;entryDy=0;exitX=0.5;exitY=1;exitDx=0;exitDy=0;" parent="1" edge="1">
          <mxGeometry width="50" height="50" relative="1" as="geometry">
            <mxPoint x="796.6100000000002" y="204.75" as="sourcePoint" />
            <mxPoint x="796.6100000000002" y="229.75" as="targetPoint" />
          </mxGeometry>
        </mxCell>
        <mxCell id="WIWhIKJ0JJs7HtybIRrX-155" value="" style="endArrow=classic;html=1;" parent="1" source="WIWhIKJ0JJs7HtybIRrX-120" edge="1">
          <mxGeometry width="50" height="50" relative="1" as="geometry">
            <mxPoint x="796.75" y="373" as="sourcePoint" />
            <mxPoint x="797" y="340" as="targetPoint" />
            <Array as="points">
              <mxPoint x="797" y="330" />
            </Array>
          </mxGeometry>
        </mxCell>
        <mxCell id="WIWhIKJ0JJs7HtybIRrX-156" value="Yes" style="edgeLabel;html=1;align=center;verticalAlign=middle;resizable=0;points=[];" parent="WIWhIKJ0JJs7HtybIRrX-155" vertex="1" connectable="0">
          <mxGeometry x="0.2516" y="3" relative="1" as="geometry">
            <mxPoint x="10" y="-3.61" as="offset" />
          </mxGeometry>
        </mxCell>
        <mxCell id="WIWhIKJ0JJs7HtybIRrX-157" value="" style="endArrow=classic;html=1;exitX=1;exitY=0.5;exitDx=0;exitDy=0;entryX=1;entryY=1;entryDx=0;entryDy=0;" parent="1" edge="1">
          <mxGeometry width="50" height="50" relative="1" as="geometry">
            <mxPoint x="841.5000000000002" y="276.125" as="sourcePoint" />
            <mxPoint x="861.5000000000002" y="204.75" as="targetPoint" />
            <Array as="points">
              <mxPoint x="861.75" y="275.75" />
              <mxPoint x="861.75" y="239.75" />
            </Array>
          </mxGeometry>
        </mxCell>
        <mxCell id="WIWhIKJ0JJs7HtybIRrX-158" value="No" style="edgeLabel;html=1;align=center;verticalAlign=middle;resizable=0;points=[];" parent="WIWhIKJ0JJs7HtybIRrX-157" vertex="1" connectable="0">
          <mxGeometry x="-0.5561" y="15" relative="1" as="geometry">
            <mxPoint x="29.75" y="-16.03" as="offset" />
          </mxGeometry>
        </mxCell>
        <mxCell id="WIWhIKJ0JJs7HtybIRrX-159" value="" style="endArrow=classic;html=1;entryX=0.5;entryY=0;entryDx=0;entryDy=0;exitX=0.812;exitY=0.795;exitDx=0;exitDy=0;exitPerimeter=0;" parent="1" source="WIWhIKJ0JJs7HtybIRrX-25" target="WIWhIKJ0JJs7HtybIRrX-119" edge="1">
          <mxGeometry width="50" height="50" relative="1" as="geometry">
            <mxPoint x="796.75" y="140" as="sourcePoint" />
            <mxPoint x="797" y="140" as="targetPoint" />
          </mxGeometry>
        </mxCell>
        <mxCell id="WIWhIKJ0JJs7HtybIRrX-171" value="" style="endArrow=classic;html=1;" parent="1" source="WIWhIKJ0JJs7HtybIRrX-50" edge="1">
          <mxGeometry width="50" height="50" relative="1" as="geometry">
            <mxPoint x="796.75" y="452.75" as="sourcePoint" />
            <mxPoint x="797" y="430" as="targetPoint" />
          </mxGeometry>
        </mxCell>
        <mxCell id="WIWhIKJ0JJs7HtybIRrX-174" value="" style="endArrow=none;dashed=1;html=1;dashPattern=1 3;strokeWidth=2;entryX=0.482;entryY=0.844;entryDx=0;entryDy=0;entryPerimeter=0;strokeColor=#990000;" parent="1" source="WIWhIKJ0JJs7HtybIRrX-38" target="WIWhIKJ0JJs7HtybIRrX-33" edge="1">
          <mxGeometry width="50" height="50" relative="1" as="geometry">
            <mxPoint x="610" y="520" as="sourcePoint" />
            <mxPoint x="660" y="470" as="targetPoint" />
            <Array as="points">
              <mxPoint x="632" y="605" />
            </Array>
          </mxGeometry>
        </mxCell>
        <mxCell id="WIWhIKJ0JJs7HtybIRrX-175" value="" style="rounded=0;whiteSpace=wrap;html=1;" parent="1" vertex="1">
          <mxGeometry x="1072" y="557.25" width="390" height="202.75" as="geometry" />
        </mxCell>
        <mxCell id="WIWhIKJ0JJs7HtybIRrX-176" value="" style="rounded=0;whiteSpace=wrap;html=1;" parent="1" vertex="1">
          <mxGeometry x="998" y="10" width="897" height="510" as="geometry" />
        </mxCell>
        <mxCell id="WIWhIKJ0JJs7HtybIRrX-177" value="&lt;br&gt;GetStaticDataSaga" style="verticalLabelPosition=bottom;html=1;verticalAlign=top;align=center;strokeColor=none;fillColor=#00BEF2;shape=mxgraph.azure.load_balancer_generic;pointerEvents=1;" parent="1" vertex="1">
          <mxGeometry x="1424.25" y="40" width="37.5" height="50" as="geometry" />
        </mxCell>
        <mxCell id="WIWhIKJ0JJs7HtybIRrX-179" value="Publish message" style="shape=process;whiteSpace=wrap;html=1;backgroundOutline=1;" parent="1" vertex="1">
          <mxGeometry x="1032.75" y="342.75" width="150" height="60" as="geometry" />
        </mxCell>
        <mxCell id="WIWhIKJ0JJs7HtybIRrX-180" value="" style="edgeStyle=orthogonalEdgeStyle;rounded=0;orthogonalLoop=1;jettySize=auto;html=1;" parent="1" source="WIWhIKJ0JJs7HtybIRrX-181" target="WIWhIKJ0JJs7HtybIRrX-182" edge="1">
          <mxGeometry relative="1" as="geometry" />
        </mxCell>
        <mxCell id="WIWhIKJ0JJs7HtybIRrX-181" value="GetClientCategoryHandler" style="verticalLabelPosition=bottom;html=1;verticalAlign=top;align=center;strokeColor=none;fillColor=#00BEF2;shape=mxgraph.azure.traffic_manager;pointerEvents=1;" parent="1" vertex="1">
          <mxGeometry x="1153.75" y="579.75" width="50" height="50" as="geometry" />
        </mxCell>
        <mxCell id="WIWhIKJ0JJs7HtybIRrX-183" value="" style="edgeStyle=orthogonalEdgeStyle;rounded=0;orthogonalLoop=1;jettySize=auto;html=1;" parent="1" source="WIWhIKJ0JJs7HtybIRrX-184" target="WIWhIKJ0JJs7HtybIRrX-185" edge="1">
          <mxGeometry relative="1" as="geometry" />
        </mxCell>
        <mxCell id="WIWhIKJ0JJs7HtybIRrX-184" value="&lt;span&gt;Publish a message with a list of client categories&lt;/span&gt;" style="shape=process;whiteSpace=wrap;html=1;backgroundOutline=1;" parent="1" vertex="1">
          <mxGeometry x="1290" y="682" width="140" height="60" as="geometry" />
        </mxCell>
        <mxCell id="WIWhIKJ0JJs7HtybIRrX-185" value="&lt;span&gt;ClientCategoriesFoundMessage&lt;br&gt;&lt;/span&gt;" style="verticalLabelPosition=bottom;html=1;verticalAlign=top;align=center;strokeColor=none;fillColor=#00BEF2;shape=mxgraph.azure.message;pointerEvents=1;" parent="1" vertex="1">
          <mxGeometry x="1335" y="579.75" width="50" height="37.5" as="geometry" />
        </mxCell>
        <mxCell id="WIWhIKJ0JJs7HtybIRrX-186" value="Publish message" style="shape=process;whiteSpace=wrap;html=1;backgroundOutline=1;" parent="1" vertex="1">
          <mxGeometry x="1196.75" y="342.75" width="150" height="60" as="geometry" />
        </mxCell>
        <mxCell id="WIWhIKJ0JJs7HtybIRrX-187" value="&lt;span&gt;StaticData&lt;/span&gt;&lt;span&gt;Found&lt;/span&gt;&lt;span&gt;&lt;br&gt;&lt;/span&gt;" style="verticalLabelPosition=bottom;html=1;verticalAlign=top;align=center;strokeColor=none;fillColor=#00BEF2;shape=mxgraph.azure.message;pointerEvents=1;" parent="1" vertex="1">
          <mxGeometry x="1246.75" y="430" width="50" height="37.5" as="geometry" />
        </mxCell>
        <mxCell id="WIWhIKJ0JJs7HtybIRrX-188" value="&lt;span&gt;Handle&amp;nbsp;&lt;br&gt;&lt;/span&gt;&lt;span&gt;ClientCategoriesFound&lt;/span&gt;&lt;span&gt;&lt;br&gt;Message&lt;/span&gt;" style="shape=process;whiteSpace=wrap;html=1;backgroundOutline=1;" parent="1" vertex="1">
          <mxGeometry x="1206.75" y="144.75" width="130" height="60" as="geometry" />
        </mxCell>
        <mxCell id="WIWhIKJ0JJs7HtybIRrX-189" value="&lt;font&gt;&lt;span style=&quot;font-size: 10px&quot;&gt;Is &lt;/span&gt;&lt;br&gt;&lt;font style=&quot;font-size: 10px&quot;&gt;ClientCategories&lt;br&gt;Found&lt;/font&gt;&lt;br&gt;&lt;span style=&quot;font-size: 10px&quot;&gt;Message &lt;/span&gt;&lt;br&gt;&lt;span style=&quot;font-size: 10px&quot;&gt;found&lt;/span&gt;&lt;/font&gt;" style="rhombus;whiteSpace=wrap;html=1;" parent="1" vertex="1">
          <mxGeometry x="1226.75" y="230.25" width="90" height="92.75" as="geometry" />
        </mxCell>
        <mxCell id="WIWhIKJ0JJs7HtybIRrX-190" value="Handle&lt;br&gt;GetStaticData Message" style="shape=process;whiteSpace=wrap;html=1;backgroundOutline=1;" parent="1" vertex="1">
          <mxGeometry x="1042.75" y="145" width="130" height="60" as="geometry" />
        </mxCell>
        <mxCell id="WIWhIKJ0JJs7HtybIRrX-191" value="&lt;font&gt;&lt;span style=&quot;font-size: 10px&quot;&gt;Is &lt;/span&gt;&lt;br&gt;&lt;div&gt;&lt;/div&gt;&lt;span style=&quot;font-size: 10px&quot;&gt;GetStaticData&lt;/span&gt;&lt;br&gt;&lt;span style=&quot;font-size: 10px&quot;&gt;Message &lt;/span&gt;&lt;br&gt;&lt;span style=&quot;font-size: 10px&quot;&gt;found&lt;/span&gt;&lt;/font&gt;" style="rhombus;whiteSpace=wrap;html=1;" parent="1" vertex="1">
          <mxGeometry x="1062.75" y="230" width="90" height="92.75" as="geometry" />
        </mxCell>
        <mxCell id="WIWhIKJ0JJs7HtybIRrX-192" value="" style="endArrow=classic;html=1;entryX=0.5;entryY=0;entryDx=0;entryDy=0;exitX=0.5;exitY=1;exitDx=0;exitDy=0;" parent="1" source="WIWhIKJ0JJs7HtybIRrX-190" target="WIWhIKJ0JJs7HtybIRrX-191" edge="1">
          <mxGeometry width="50" height="50" relative="1" as="geometry">
            <mxPoint x="1231" y="240" as="sourcePoint" />
            <mxPoint x="1281" y="190" as="targetPoint" />
          </mxGeometry>
        </mxCell>
        <mxCell id="WIWhIKJ0JJs7HtybIRrX-193" value="" style="endArrow=classic;html=1;entryX=0.5;entryY=0;entryDx=0;entryDy=0;" parent="1" source="WIWhIKJ0JJs7HtybIRrX-177" target="WIWhIKJ0JJs7HtybIRrX-190" edge="1">
          <mxGeometry width="50" height="50" relative="1" as="geometry">
            <mxPoint x="1245" y="120" as="sourcePoint" />
            <mxPoint x="1295" y="70" as="targetPoint" />
          </mxGeometry>
        </mxCell>
        <mxCell id="WIWhIKJ0JJs7HtybIRrX-194" value="" style="endArrow=classic;html=1;exitX=1;exitY=0.5;exitDx=0;exitDy=0;entryX=0;entryY=0.5;entryDx=0;entryDy=0;" parent="1" source="WIWhIKJ0JJs7HtybIRrX-182" target="WIWhIKJ0JJs7HtybIRrX-184" edge="1">
          <mxGeometry width="50" height="50" relative="1" as="geometry">
            <mxPoint x="1242" y="740" as="sourcePoint" />
            <mxPoint x="1292" y="690" as="targetPoint" />
          </mxGeometry>
        </mxCell>
        <mxCell id="WIWhIKJ0JJs7HtybIRrX-195" value="" style="endArrow=classic;html=1;" parent="1" source="WIWhIKJ0JJs7HtybIRrX-191" edge="1">
          <mxGeometry width="50" height="50" relative="1" as="geometry">
            <mxPoint x="1107.75" y="372.75" as="sourcePoint" />
            <mxPoint x="1108" y="340" as="targetPoint" />
          </mxGeometry>
        </mxCell>
        <mxCell id="WIWhIKJ0JJs7HtybIRrX-196" value="Yes" style="edgeLabel;html=1;align=center;verticalAlign=middle;resizable=0;points=[];" parent="WIWhIKJ0JJs7HtybIRrX-195" vertex="1" connectable="0">
          <mxGeometry x="0.4096" relative="1" as="geometry">
            <mxPoint x="13.02" y="-4.79" as="offset" />
          </mxGeometry>
        </mxCell>
        <mxCell id="WIWhIKJ0JJs7HtybIRrX-197" value="" style="endArrow=classic;html=1;" parent="1" source="WIWhIKJ0JJs7HtybIRrX-179" edge="1">
          <mxGeometry width="50" height="50" relative="1" as="geometry">
            <mxPoint x="1107.75" y="452.75" as="sourcePoint" />
            <mxPoint x="1108" y="430" as="targetPoint" />
          </mxGeometry>
        </mxCell>
        <mxCell id="WIWhIKJ0JJs7HtybIRrX-198" value="" style="endArrow=classic;html=1;exitX=1;exitY=0.5;exitDx=0;exitDy=0;entryX=1;entryY=1;entryDx=0;entryDy=0;" parent="1" source="WIWhIKJ0JJs7HtybIRrX-191" target="WIWhIKJ0JJs7HtybIRrX-190" edge="1">
          <mxGeometry width="50" height="50" relative="1" as="geometry">
            <mxPoint x="1161" y="290" as="sourcePoint" />
            <mxPoint x="1211" y="240" as="targetPoint" />
            <Array as="points">
              <mxPoint x="1173" y="276" />
              <mxPoint x="1173" y="240" />
            </Array>
          </mxGeometry>
        </mxCell>
        <mxCell id="WIWhIKJ0JJs7HtybIRrX-199" value="No" style="edgeLabel;html=1;align=center;verticalAlign=middle;resizable=0;points=[];" parent="WIWhIKJ0JJs7HtybIRrX-198" vertex="1" connectable="0">
          <mxGeometry x="-0.5561" y="15" relative="1" as="geometry">
            <mxPoint x="24.75" y="-16.03" as="offset" />
          </mxGeometry>
        </mxCell>
        <mxCell id="WIWhIKJ0JJs7HtybIRrX-200" value="" style="endArrow=classic;html=1;entryX=0.5;entryY=0;entryDx=0;entryDy=0;exitX=0.5;exitY=1;exitDx=0;exitDy=0;" parent="1" edge="1">
          <mxGeometry width="50" height="50" relative="1" as="geometry">
            <mxPoint x="1271.6100000000001" y="204.75" as="sourcePoint" />
            <mxPoint x="1271.6100000000001" y="229.75" as="targetPoint" />
          </mxGeometry>
        </mxCell>
        <mxCell id="WIWhIKJ0JJs7HtybIRrX-201" value="" style="endArrow=classic;html=1;" parent="1" source="WIWhIKJ0JJs7HtybIRrX-189" edge="1">
          <mxGeometry width="50" height="50" relative="1" as="geometry">
            <mxPoint x="1271.75" y="373" as="sourcePoint" />
            <mxPoint x="1272" y="340" as="targetPoint" />
            <Array as="points">
              <mxPoint x="1272" y="330" />
            </Array>
          </mxGeometry>
        </mxCell>
        <mxCell id="WIWhIKJ0JJs7HtybIRrX-202" value="Yes" style="edgeLabel;html=1;align=center;verticalAlign=middle;resizable=0;points=[];" parent="WIWhIKJ0JJs7HtybIRrX-201" vertex="1" connectable="0">
          <mxGeometry x="0.2516" y="3" relative="1" as="geometry">
            <mxPoint x="10" y="-3.61" as="offset" />
          </mxGeometry>
        </mxCell>
        <mxCell id="WIWhIKJ0JJs7HtybIRrX-203" value="" style="endArrow=classic;html=1;exitX=1;exitY=0.5;exitDx=0;exitDy=0;entryX=1;entryY=1;entryDx=0;entryDy=0;" parent="1" edge="1">
          <mxGeometry width="50" height="50" relative="1" as="geometry">
            <mxPoint x="1316.5" y="276.125" as="sourcePoint" />
            <mxPoint x="1336.5" y="204.75" as="targetPoint" />
            <Array as="points">
              <mxPoint x="1336.75" y="275.75" />
              <mxPoint x="1336.75" y="239.75" />
            </Array>
          </mxGeometry>
        </mxCell>
        <mxCell id="WIWhIKJ0JJs7HtybIRrX-205" value="" style="endArrow=classic;html=1;entryX=0.5;entryY=0;entryDx=0;entryDy=0;" parent="1" source="WIWhIKJ0JJs7HtybIRrX-177" target="WIWhIKJ0JJs7HtybIRrX-188" edge="1">
          <mxGeometry width="50" height="50" relative="1" as="geometry">
            <mxPoint x="1271.75" y="140" as="sourcePoint" />
            <mxPoint x="1272" y="140" as="targetPoint" />
          </mxGeometry>
        </mxCell>
        <mxCell id="WIWhIKJ0JJs7HtybIRrX-215" value="" style="endArrow=classic;html=1;" parent="1" source="WIWhIKJ0JJs7HtybIRrX-186" edge="1">
          <mxGeometry width="50" height="50" relative="1" as="geometry">
            <mxPoint x="1271.75" y="452.75" as="sourcePoint" />
            <mxPoint x="1272" y="430" as="targetPoint" />
          </mxGeometry>
        </mxCell>
        <mxCell id="WIWhIKJ0JJs7HtybIRrX-216" value="" style="endArrow=none;dashed=1;html=1;dashPattern=1 3;strokeWidth=2;entryX=0.482;entryY=0.844;entryDx=0;entryDy=0;entryPerimeter=0;strokeColor=#990000;" parent="1" source="WIWhIKJ0JJs7HtybIRrX-181" target="WIWhIKJ0JJs7HtybIRrX-178" edge="1">
          <mxGeometry width="50" height="50" relative="1" as="geometry">
            <mxPoint x="1085" y="520" as="sourcePoint" />
            <mxPoint x="1135" y="470" as="targetPoint" />
            <Array as="points">
              <mxPoint x="1107" y="605" />
            </Array>
          </mxGeometry>
        </mxCell>
        <mxCell id="WIWhIKJ0JJs7HtybIRrX-218" value="" style="endArrow=none;dashed=1;html=1;dashPattern=1 3;strokeWidth=2;exitX=1;exitY=0.5;exitDx=0;exitDy=0;exitPerimeter=0;entryX=0;entryY=0.5;entryDx=0;entryDy=0;strokeColor=#0000FF;" parent="1" source="WIWhIKJ0JJs7HtybIRrX-70" target="WIWhIKJ0JJs7HtybIRrX-190" edge="1">
          <mxGeometry width="50" height="50" relative="1" as="geometry">
            <mxPoint x="1150" y="400" as="sourcePoint" />
            <mxPoint x="1200" y="350" as="targetPoint" />
            <Array as="points">
              <mxPoint x="1010" y="449" />
              <mxPoint x="1010" y="175" />
            </Array>
          </mxGeometry>
        </mxCell>
        <mxCell id="WIWhIKJ0JJs7HtybIRrX-178" value="&lt;span&gt;GetClientCategoriesV1&lt;br&gt;&lt;/span&gt;" style="verticalLabelPosition=bottom;html=1;verticalAlign=top;align=center;strokeColor=none;fillColor=#00BEF2;shape=mxgraph.azure.message;pointerEvents=1;" parent="1" vertex="1">
          <mxGeometry x="1082.75" y="430" width="50" height="37.5" as="geometry" />
        </mxCell>
        <mxCell id="WIWhIKJ0JJs7HtybIRrX-220" value="" style="endArrow=none;dashed=1;html=1;dashPattern=1 3;strokeWidth=2;exitX=1;exitY=0.5;exitDx=0;exitDy=0;entryX=0.048;entryY=0.737;entryDx=0;entryDy=0;entryPerimeter=0;strokeColor=#00CC66;" parent="1" source="WIWhIKJ0JJs7HtybIRrX-119" target="WIWhIKJ0JJs7HtybIRrX-47" edge="1">
          <mxGeometry width="50" height="50" relative="1" as="geometry">
            <mxPoint x="850" y="210" as="sourcePoint" />
            <mxPoint x="900" y="160" as="targetPoint" />
            <Array as="points">
              <mxPoint x="880" y="175" />
              <mxPoint x="880" y="607" />
            </Array>
          </mxGeometry>
        </mxCell>
        <mxCell id="WIWhIKJ0JJs7HtybIRrX-221" value="" style="endArrow=none;dashed=1;html=1;dashPattern=1 3;strokeWidth=2;exitX=1;exitY=0.5;exitDx=0;exitDy=0;entryX=0.5;entryY=0;entryDx=0;entryDy=0;entryPerimeter=0;strokeColor=#00CC66;" parent="1" target="WIWhIKJ0JJs7HtybIRrX-185" edge="1">
          <mxGeometry width="50" height="50" relative="1" as="geometry">
            <mxPoint x="1336.75" y="168.68" as="sourcePoint" />
            <mxPoint x="1380.4" y="601.3175" as="targetPoint" />
            <Array as="points">
              <mxPoint x="1360" y="169" />
            </Array>
          </mxGeometry>
        </mxCell>
        <mxCell id="WIWhIKJ0JJs7HtybIRrX-225" value="" style="rounded=0;whiteSpace=wrap;html=1;fillColor=#d5e8d4;strokeColor=#82b366;" parent="1" vertex="1">
          <mxGeometry x="500" y="918.63" width="360" height="470" as="geometry" />
        </mxCell>
        <mxCell id="WIWhIKJ0JJs7HtybIRrX-3" value="Enable API&lt;br&gt;" style="verticalLabelPosition=bottom;html=1;verticalAlign=top;align=center;strokeColor=none;fillColor=#00BEF2;shape=mxgraph.azure.azure_website;pointerEvents=1;" parent="1" vertex="1">
          <mxGeometry x="507.75" y="1310" width="50" height="50" as="geometry" />
        </mxCell>
        <mxCell id="WIWhIKJ0JJs7HtybIRrX-226" value="" style="rounded=0;whiteSpace=wrap;html=1;" parent="1" vertex="1">
          <mxGeometry x="587.75" y="947.25" width="252.25" height="412.75" as="geometry" />
        </mxCell>
        <mxCell id="WIWhIKJ0JJs7HtybIRrX-227" value="GenerateMaterializedViewHandler" style="verticalLabelPosition=bottom;html=1;verticalAlign=top;align=center;strokeColor=none;fillColor=#00BEF2;shape=mxgraph.azure.traffic_manager;pointerEvents=1;" parent="1" vertex="1">
          <mxGeometry x="684.5" y="969.75" width="50" height="50" as="geometry" />
        </mxCell>
        <mxCell id="WIWhIKJ0JJs7HtybIRrX-228" value="Handle&lt;br&gt;Static Data Found&lt;br&gt;Message" style="shape=process;whiteSpace=wrap;html=1;backgroundOutline=1;" parent="1" vertex="1">
          <mxGeometry x="634.5" y="1072" width="150" height="60" as="geometry" />
        </mxCell>
        <mxCell id="WIWhIKJ0JJs7HtybIRrX-231" value="" style="endArrow=classic;html=1;entryX=0.5;entryY=0;entryDx=0;entryDy=0;exitX=0.5;exitY=1;exitDx=0;exitDy=0;exitPerimeter=0;" parent="1" source="WIWhIKJ0JJs7HtybIRrX-227" target="WIWhIKJ0JJs7HtybIRrX-228" edge="1">
          <mxGeometry width="50" height="50" relative="1" as="geometry">
            <mxPoint x="695" y="1060" as="sourcePoint" />
            <mxPoint x="745" y="1010" as="targetPoint" />
          </mxGeometry>
        </mxCell>
        <mxCell id="WIWhIKJ0JJs7HtybIRrX-234" value="Call Materialized View Service to Upsert Materialized View" style="shape=process;whiteSpace=wrap;html=1;backgroundOutline=1;" parent="1" vertex="1">
          <mxGeometry x="634.5" y="1269.75" width="150" height="60" as="geometry" />
        </mxCell>
        <mxCell id="WIWhIKJ0JJs7HtybIRrX-235" value="&lt;font&gt;&lt;span style=&quot;font-size: 10px&quot;&gt;Is &lt;/span&gt;&lt;br&gt;&lt;div&gt;&lt;/div&gt;&lt;div&gt;&lt;span style=&quot;font-size: 10px&quot;&gt;Generate&lt;/span&gt;&lt;/div&gt;&lt;div&gt;&lt;span style=&quot;font-size: 10px&quot;&gt;Materialized View&lt;/span&gt;&lt;/div&gt;&lt;span style=&quot;font-size: 10px&quot;&gt;Message &lt;/span&gt;&lt;br&gt;&lt;span style=&quot;font-size: 10px&quot;&gt;found&lt;/span&gt;&lt;/font&gt;" style="rhombus;whiteSpace=wrap;html=1;" parent="1" vertex="1">
          <mxGeometry x="664.5" y="1157" width="90" height="92.75" as="geometry" />
        </mxCell>
        <mxCell id="WIWhIKJ0JJs7HtybIRrX-236" value="" style="endArrow=classic;html=1;entryX=0.5;entryY=0;entryDx=0;entryDy=0;exitX=0.5;exitY=1;exitDx=0;exitDy=0;" parent="1" target="WIWhIKJ0JJs7HtybIRrX-235" edge="1">
          <mxGeometry width="50" height="50" relative="1" as="geometry">
            <mxPoint x="709.5" y="1132" as="sourcePoint" />
            <mxPoint x="882.75" y="1117" as="targetPoint" />
          </mxGeometry>
        </mxCell>
        <mxCell id="WIWhIKJ0JJs7HtybIRrX-237" value="" style="endArrow=classic;html=1;exitX=1;exitY=0.5;exitDx=0;exitDy=0;entryX=1;entryY=1;entryDx=0;entryDy=0;" parent="1" source="WIWhIKJ0JJs7HtybIRrX-235" edge="1">
          <mxGeometry width="50" height="50" relative="1" as="geometry">
            <mxPoint x="762.75" y="1217" as="sourcePoint" />
            <mxPoint x="774.5" y="1132" as="targetPoint" />
            <Array as="points">
              <mxPoint x="774.75" y="1203" />
              <mxPoint x="774.75" y="1167" />
            </Array>
          </mxGeometry>
        </mxCell>
        <mxCell id="WIWhIKJ0JJs7HtybIRrX-238" value="No" style="edgeLabel;html=1;align=center;verticalAlign=middle;resizable=0;points=[];" parent="WIWhIKJ0JJs7HtybIRrX-237" vertex="1" connectable="0">
          <mxGeometry x="-0.5561" y="15" relative="1" as="geometry">
            <mxPoint x="24.75" y="-16.03" as="offset" />
          </mxGeometry>
        </mxCell>
        <mxCell id="WIWhIKJ0JJs7HtybIRrX-240" value="" style="endArrow=classic;html=1;strokeColor=#000000;" parent="1" source="WIWhIKJ0JJs7HtybIRrX-235" edge="1">
          <mxGeometry width="50" height="50" relative="1" as="geometry">
            <mxPoint x="709.5" y="1299.75" as="sourcePoint" />
            <mxPoint x="710" y="1270" as="targetPoint" />
          </mxGeometry>
        </mxCell>
        <mxCell id="WIWhIKJ0JJs7HtybIRrX-241" value="Yes" style="edgeLabel;html=1;align=center;verticalAlign=middle;resizable=0;points=[];" parent="WIWhIKJ0JJs7HtybIRrX-240" vertex="1" connectable="0">
          <mxGeometry x="0.3475" y="1" relative="1" as="geometry">
            <mxPoint x="11.8" y="-3.39" as="offset" />
          </mxGeometry>
        </mxCell>
        <mxCell id="WIWhIKJ0JJs7HtybIRrX-242" value="" style="endArrow=none;dashed=1;html=1;dashPattern=1 3;strokeWidth=2;entryX=0;entryY=0.5;entryDx=0;entryDy=0;" parent="1" source="WIWhIKJ0JJs7HtybIRrX-21" target="WIWhIKJ0JJs7HtybIRrX-131" edge="1">
          <mxGeometry width="50" height="50" relative="1" as="geometry">
            <mxPoint x="463" y="121" as="sourcePoint" />
            <mxPoint x="533.7106781186548" y="71" as="targetPoint" />
            <Array as="points">
              <mxPoint x="550" y="71" />
              <mxPoint x="550" y="175" />
            </Array>
          </mxGeometry>
        </mxCell>
        <mxCell id="WIWhIKJ0JJs7HtybIRrX-244" value="Ct Core File Storage" style="verticalLabelPosition=bottom;html=1;verticalAlign=top;align=center;strokeColor=none;fillColor=#00BEF2;shape=mxgraph.azure.azure_website;pointerEvents=1;" parent="1" vertex="1">
          <mxGeometry x="953" y="1309" width="50" height="50" as="geometry" />
        </mxCell>
        <mxCell id="WIWhIKJ0JJs7HtybIRrX-245" value="" style="rounded=0;whiteSpace=wrap;html=1;" parent="1" vertex="1">
          <mxGeometry x="1017.5" y="946.25" width="252.25" height="412.75" as="geometry" />
        </mxCell>
        <mxCell id="WIWhIKJ0JJs7HtybIRrX-246" value="" style="endArrow=none;dashed=1;html=1;dashPattern=1 3;strokeWidth=2;entryX=0.5;entryY=1;entryDx=0;entryDy=0;entryPerimeter=0;" parent="1" target="WIWhIKJ0JJs7HtybIRrX-187" edge="1">
          <mxGeometry width="50" height="50" relative="1" as="geometry">
            <mxPoint x="784" y="1100" as="sourcePoint" />
            <mxPoint x="990" y="460" as="targetPoint" />
            <Array as="points">
              <mxPoint x="880" y="1100" />
              <mxPoint x="880" y="880" />
              <mxPoint x="1272" y="880" />
            </Array>
          </mxGeometry>
        </mxCell>
        <mxCell id="WIWhIKJ0JJs7HtybIRrX-247" value="MaterializedViewService" style="verticalLabelPosition=bottom;html=1;verticalAlign=top;align=center;strokeColor=none;fillColor=#00BEF2;shape=mxgraph.azure.service_endpoint;" parent="1" vertex="1">
          <mxGeometry x="1115" y="984.75" width="50" height="20" as="geometry" />
        </mxCell>
        <mxCell id="WIWhIKJ0JJs7HtybIRrX-250" value="Upsert Materialized View to Blob Storage" style="shape=process;whiteSpace=wrap;html=1;backgroundOutline=1;" parent="1" vertex="1">
          <mxGeometry x="1067.75" y="1072" width="150" height="60" as="geometry" />
        </mxCell>
        <mxCell id="WIWhIKJ0JJs7HtybIRrX-251" value="" style="endArrow=classic;html=1;strokeColor=#000000;entryX=0;entryY=0.5;entryDx=0;entryDy=0;" parent="1" source="WIWhIKJ0JJs7HtybIRrX-234" target="WIWhIKJ0JJs7HtybIRrX-250" edge="1">
          <mxGeometry width="50" height="50" relative="1" as="geometry">
            <mxPoint x="769.5" y="1349.75" as="sourcePoint" />
            <mxPoint x="840.2106781186548" y="1299.75" as="targetPoint" />
            <Array as="points">
              <mxPoint x="990" y="1300" />
              <mxPoint x="990" y="1102" />
            </Array>
          </mxGeometry>
        </mxCell>
        <mxCell id="WIWhIKJ0JJs7HtybIRrX-252" value="" style="endArrow=classic;html=1;strokeColor=#000000;entryX=0;entryY=0.5;entryDx=0;entryDy=0;entryPerimeter=0;" parent="1" source="WIWhIKJ0JJs7HtybIRrX-250" target="WIWhIKJ0JJs7HtybIRrX-24" edge="1">
          <mxGeometry width="50" height="50" relative="1" as="geometry">
            <mxPoint x="1180" y="1152" as="sourcePoint" />
            <mxPoint x="1250.7106781186549" y="1102" as="targetPoint" />
          </mxGeometry>
        </mxCell>
        <mxCell id="WIWhIKJ0JJs7HtybIRrX-253" value="" style="endArrow=classic;html=1;strokeColor=#000000;entryX=1;entryY=0.5;entryDx=0;entryDy=0;entryPerimeter=0;exitX=0.48;exitY=1.01;exitDx=0;exitDy=0;startArrow=classic;startFill=1;exitPerimeter=0;" parent="1" source="WIWhIKJ0JJs7HtybIRrX-182" target="WIWhIKJ0JJs7HtybIRrX-5" edge="1">
          <mxGeometry width="50" height="50" relative="1" as="geometry">
            <mxPoint x="1310" y="740" as="sourcePoint" />
            <mxPoint x="1290" y="770" as="targetPoint" />
            <Array as="points">
              <mxPoint x="1176" y="845" />
            </Array>
          </mxGeometry>
        </mxCell>
        <mxCell id="WIWhIKJ0JJs7HtybIRrX-182" value="Get list of client categories" style="shape=process;whiteSpace=wrap;html=1;backgroundOutline=1;" parent="1" vertex="1">
          <mxGeometry x="1103.75" y="682" width="150" height="60" as="geometry" />
        </mxCell>
        <mxCell id="WIWhIKJ0JJs7HtybIRrX-254" value="AZURE" style="verticalLabelPosition=bottom;html=1;verticalAlign=top;align=center;strokeColor=none;fillColor=#00BEF2;shape=mxgraph.azure.cloud;" parent="1" vertex="1">
          <mxGeometry x="20" y="143" width="50" height="32.5" as="geometry" />
        </mxCell>
        <mxCell id="WIWhIKJ0JJs7HtybIRrX-266" value="Publish message" style="shape=process;whiteSpace=wrap;html=1;backgroundOutline=1;" parent="1" vertex="1">
          <mxGeometry x="1368" y="343" width="150" height="60" as="geometry" />
        </mxCell>
        <mxCell id="WIWhIKJ0JJs7HtybIRrX-267" value="Handle&lt;br&gt;GetStaticData Message" style="shape=process;whiteSpace=wrap;html=1;backgroundOutline=1;" parent="1" vertex="1">
          <mxGeometry x="1378" y="145.25" width="130" height="60" as="geometry" />
        </mxCell>
        <mxCell id="WIWhIKJ0JJs7HtybIRrX-268" value="&lt;font&gt;&lt;span style=&quot;font-size: 10px&quot;&gt;Is &lt;/span&gt;&lt;br&gt;&lt;div&gt;&lt;/div&gt;&lt;span style=&quot;font-size: 10px&quot;&gt;GetStaticData&lt;/span&gt;&lt;br&gt;&lt;span style=&quot;font-size: 10px&quot;&gt;Message &lt;/span&gt;&lt;br&gt;&lt;span style=&quot;font-size: 10px&quot;&gt;found&lt;/span&gt;&lt;/font&gt;" style="rhombus;whiteSpace=wrap;html=1;" parent="1" vertex="1">
          <mxGeometry x="1398" y="230.25" width="90" height="92.75" as="geometry" />
        </mxCell>
        <mxCell id="WIWhIKJ0JJs7HtybIRrX-269" value="" style="endArrow=classic;html=1;entryX=0.5;entryY=0;entryDx=0;entryDy=0;exitX=0.5;exitY=1;exitDx=0;exitDy=0;" parent="1" source="WIWhIKJ0JJs7HtybIRrX-267" target="WIWhIKJ0JJs7HtybIRrX-268" edge="1">
          <mxGeometry width="50" height="50" relative="1" as="geometry">
            <mxPoint x="1566.25" y="240.25" as="sourcePoint" />
            <mxPoint x="1616.25" y="190.25" as="targetPoint" />
          </mxGeometry>
        </mxCell>
        <mxCell id="WIWhIKJ0JJs7HtybIRrX-270" value="" style="endArrow=classic;html=1;" parent="1" source="WIWhIKJ0JJs7HtybIRrX-268" edge="1">
          <mxGeometry width="50" height="50" relative="1" as="geometry">
            <mxPoint x="1443" y="373" as="sourcePoint" />
            <mxPoint x="1443.25" y="340.25" as="targetPoint" />
          </mxGeometry>
        </mxCell>
        <mxCell id="WIWhIKJ0JJs7HtybIRrX-271" value="Yes" style="edgeLabel;html=1;align=center;verticalAlign=middle;resizable=0;points=[];" parent="WIWhIKJ0JJs7HtybIRrX-270" vertex="1" connectable="0">
          <mxGeometry x="0.4096" relative="1" as="geometry">
            <mxPoint x="13.02" y="-4.79" as="offset" />
          </mxGeometry>
        </mxCell>
        <mxCell id="WIWhIKJ0JJs7HtybIRrX-272" value="" style="endArrow=classic;html=1;" parent="1" source="WIWhIKJ0JJs7HtybIRrX-266" edge="1">
          <mxGeometry width="50" height="50" relative="1" as="geometry">
            <mxPoint x="1443" y="453" as="sourcePoint" />
            <mxPoint x="1443.25" y="430.25" as="targetPoint" />
          </mxGeometry>
        </mxCell>
        <mxCell id="WIWhIKJ0JJs7HtybIRrX-273" value="" style="endArrow=classic;html=1;exitX=1;exitY=0.5;exitDx=0;exitDy=0;entryX=1;entryY=1;entryDx=0;entryDy=0;" parent="1" source="WIWhIKJ0JJs7HtybIRrX-268" target="WIWhIKJ0JJs7HtybIRrX-267" edge="1">
          <mxGeometry width="50" height="50" relative="1" as="geometry">
            <mxPoint x="1496.25" y="290.25" as="sourcePoint" />
            <mxPoint x="1546.25" y="240.25" as="targetPoint" />
            <Array as="points">
              <mxPoint x="1508.25" y="276.25" />
              <mxPoint x="1508.25" y="240.25" />
            </Array>
          </mxGeometry>
        </mxCell>
        <mxCell id="WIWhIKJ0JJs7HtybIRrX-274" value="No" style="edgeLabel;html=1;align=center;verticalAlign=middle;resizable=0;points=[];" parent="WIWhIKJ0JJs7HtybIRrX-273" vertex="1" connectable="0">
          <mxGeometry x="-0.5561" y="15" relative="1" as="geometry">
            <mxPoint x="24.75" y="-16.03" as="offset" />
          </mxGeometry>
        </mxCell>
        <mxCell id="WIWhIKJ0JJs7HtybIRrX-275" value="&lt;span&gt;GetAdvisersV1&lt;br&gt;&lt;/span&gt;" style="verticalLabelPosition=bottom;html=1;verticalAlign=top;align=center;strokeColor=none;fillColor=#00BEF2;shape=mxgraph.azure.message;pointerEvents=1;" parent="1" vertex="1">
          <mxGeometry x="1418" y="430.25" width="50" height="37.5" as="geometry" />
        </mxCell>
        <mxCell id="WIWhIKJ0JJs7HtybIRrX-276" value="" style="endArrow=classic;html=1;strokeColor=#000000;exitX=0.49;exitY=1;exitDx=0;exitDy=0;exitPerimeter=0;entryX=0.5;entryY=0;entryDx=0;entryDy=0;" parent="1" source="WIWhIKJ0JJs7HtybIRrX-177" target="WIWhIKJ0JJs7HtybIRrX-267" edge="1">
          <mxGeometry width="50" height="50" relative="1" as="geometry">
            <mxPoint x="1245" y="90" as="sourcePoint" />
            <mxPoint x="1295" y="40" as="targetPoint" />
          </mxGeometry>
        </mxCell>
        <mxCell id="WIWhIKJ0JJs7HtybIRrX-277" value="" style="rounded=0;whiteSpace=wrap;html=1;" parent="1" vertex="1">
          <mxGeometry x="1502" y="557.25" width="390" height="202.75" as="geometry" />
        </mxCell>
        <mxCell id="WIWhIKJ0JJs7HtybIRrX-278" value="" style="edgeStyle=orthogonalEdgeStyle;rounded=0;orthogonalLoop=1;jettySize=auto;html=1;" parent="1" source="WIWhIKJ0JJs7HtybIRrX-279" target="WIWhIKJ0JJs7HtybIRrX-284" edge="1">
          <mxGeometry relative="1" as="geometry" />
        </mxCell>
        <mxCell id="WIWhIKJ0JJs7HtybIRrX-279" value="GetAdvisersHandler" style="verticalLabelPosition=bottom;html=1;verticalAlign=top;align=center;strokeColor=none;fillColor=#00BEF2;shape=mxgraph.azure.traffic_manager;pointerEvents=1;" parent="1" vertex="1">
          <mxGeometry x="1583.75" y="579.75" width="50" height="50" as="geometry" />
        </mxCell>
        <mxCell id="WIWhIKJ0JJs7HtybIRrX-280" value="" style="edgeStyle=orthogonalEdgeStyle;rounded=0;orthogonalLoop=1;jettySize=auto;html=1;" parent="1" source="WIWhIKJ0JJs7HtybIRrX-281" target="WIWhIKJ0JJs7HtybIRrX-282" edge="1">
          <mxGeometry relative="1" as="geometry" />
        </mxCell>
        <mxCell id="WIWhIKJ0JJs7HtybIRrX-281" value="&lt;span&gt;Publish a message with a list of advisers&lt;/span&gt;" style="shape=process;whiteSpace=wrap;html=1;backgroundOutline=1;" parent="1" vertex="1">
          <mxGeometry x="1720" y="682" width="140" height="60" as="geometry" />
        </mxCell>
        <mxCell id="WIWhIKJ0JJs7HtybIRrX-282" value="&lt;span&gt;AdvisersFoundMessage&lt;br&gt;&lt;/span&gt;" style="verticalLabelPosition=bottom;html=1;verticalAlign=top;align=center;strokeColor=none;fillColor=#00BEF2;shape=mxgraph.azure.message;pointerEvents=1;" parent="1" vertex="1">
          <mxGeometry x="1765" y="579.75" width="50" height="37.5" as="geometry" />
        </mxCell>
        <mxCell id="WIWhIKJ0JJs7HtybIRrX-283" value="" style="endArrow=classic;html=1;exitX=1;exitY=0.5;exitDx=0;exitDy=0;entryX=0;entryY=0.5;entryDx=0;entryDy=0;" parent="1" source="WIWhIKJ0JJs7HtybIRrX-284" target="WIWhIKJ0JJs7HtybIRrX-281" edge="1">
          <mxGeometry width="50" height="50" relative="1" as="geometry">
            <mxPoint x="1672" y="740" as="sourcePoint" />
            <mxPoint x="1722" y="690" as="targetPoint" />
          </mxGeometry>
        </mxCell>
        <mxCell id="WIWhIKJ0JJs7HtybIRrX-284" value="Get list of advisers" style="shape=process;whiteSpace=wrap;html=1;backgroundOutline=1;" parent="1" vertex="1">
          <mxGeometry x="1533.75" y="682" width="150" height="60" as="geometry" />
        </mxCell>
        <mxCell id="WIWhIKJ0JJs7HtybIRrX-286" value="Publish message" style="shape=process;whiteSpace=wrap;html=1;backgroundOutline=1;" parent="1" vertex="1">
          <mxGeometry x="1528" y="343" width="150" height="60" as="geometry" />
        </mxCell>
        <mxCell id="WIWhIKJ0JJs7HtybIRrX-287" value="&lt;span&gt;StaticData&lt;/span&gt;&lt;span&gt;Found&lt;/span&gt;&lt;span&gt;&lt;br&gt;&lt;/span&gt;" style="verticalLabelPosition=bottom;html=1;verticalAlign=top;align=center;strokeColor=none;fillColor=#00BEF2;shape=mxgraph.azure.message;pointerEvents=1;" parent="1" vertex="1">
          <mxGeometry x="1578" y="430.25" width="50" height="37.5" as="geometry" />
        </mxCell>
        <mxCell id="WIWhIKJ0JJs7HtybIRrX-288" value="&lt;span&gt;Handle&amp;nbsp;&lt;br&gt;&lt;/span&gt;&lt;span&gt;AdvisersFound&lt;/span&gt;&lt;span&gt;&lt;br&gt;Message&lt;/span&gt;" style="shape=process;whiteSpace=wrap;html=1;backgroundOutline=1;" parent="1" vertex="1">
          <mxGeometry x="1538" y="145" width="130" height="60" as="geometry" />
        </mxCell>
        <mxCell id="WIWhIKJ0JJs7HtybIRrX-289" value="&lt;font&gt;&lt;span style=&quot;font-size: 10px&quot;&gt;Is &lt;/span&gt;&lt;br&gt;&lt;font style=&quot;font-size: 10px&quot;&gt;Advisers&lt;br&gt;Found&lt;/font&gt;&lt;br&gt;&lt;span style=&quot;font-size: 10px&quot;&gt;Message &lt;/span&gt;&lt;br&gt;&lt;span style=&quot;font-size: 10px&quot;&gt;found&lt;/span&gt;&lt;/font&gt;" style="rhombus;whiteSpace=wrap;html=1;" parent="1" vertex="1">
          <mxGeometry x="1558" y="230.5" width="90" height="92.75" as="geometry" />
        </mxCell>
        <mxCell id="WIWhIKJ0JJs7HtybIRrX-290" value="" style="endArrow=classic;html=1;entryX=0.5;entryY=0;entryDx=0;entryDy=0;exitX=0.5;exitY=1;exitDx=0;exitDy=0;" parent="1" edge="1">
          <mxGeometry width="50" height="50" relative="1" as="geometry">
            <mxPoint x="1602.8600000000001" y="205" as="sourcePoint" />
            <mxPoint x="1602.8600000000001" y="230" as="targetPoint" />
          </mxGeometry>
        </mxCell>
        <mxCell id="WIWhIKJ0JJs7HtybIRrX-291" value="" style="endArrow=classic;html=1;" parent="1" source="WIWhIKJ0JJs7HtybIRrX-289" edge="1">
          <mxGeometry width="50" height="50" relative="1" as="geometry">
            <mxPoint x="1603" y="373.25" as="sourcePoint" />
            <mxPoint x="1603.25" y="340.25" as="targetPoint" />
            <Array as="points">
              <mxPoint x="1603.25" y="330.25" />
            </Array>
          </mxGeometry>
        </mxCell>
        <mxCell id="WIWhIKJ0JJs7HtybIRrX-292" value="Yes" style="edgeLabel;html=1;align=center;verticalAlign=middle;resizable=0;points=[];" parent="WIWhIKJ0JJs7HtybIRrX-291" vertex="1" connectable="0">
          <mxGeometry x="0.2516" y="3" relative="1" as="geometry">
            <mxPoint x="10" y="-3.61" as="offset" />
          </mxGeometry>
        </mxCell>
        <mxCell id="WIWhIKJ0JJs7HtybIRrX-293" value="" style="endArrow=classic;html=1;exitX=1;exitY=0.5;exitDx=0;exitDy=0;entryX=1;entryY=1;entryDx=0;entryDy=0;" parent="1" edge="1">
          <mxGeometry width="50" height="50" relative="1" as="geometry">
            <mxPoint x="1647.75" y="276.3749999999998" as="sourcePoint" />
            <mxPoint x="1667.75" y="205" as="targetPoint" />
            <Array as="points">
              <mxPoint x="1668" y="276" />
              <mxPoint x="1668" y="240" />
            </Array>
          </mxGeometry>
        </mxCell>
        <mxCell id="WIWhIKJ0JJs7HtybIRrX-294" value="No" style="edgeLabel;html=1;align=center;verticalAlign=middle;resizable=0;points=[];" parent="WIWhIKJ0JJs7HtybIRrX-293" vertex="1" connectable="0">
          <mxGeometry x="-0.5561" y="15" relative="1" as="geometry">
            <mxPoint x="29.75" y="-16.03" as="offset" />
          </mxGeometry>
        </mxCell>
        <mxCell id="WIWhIKJ0JJs7HtybIRrX-295" value="" style="endArrow=classic;html=1;entryX=0.5;entryY=0;entryDx=0;entryDy=0;exitX=0.719;exitY=0.686;exitDx=0;exitDy=0;exitPerimeter=0;" parent="1" source="WIWhIKJ0JJs7HtybIRrX-177" target="WIWhIKJ0JJs7HtybIRrX-288" edge="1">
          <mxGeometry width="50" height="50" relative="1" as="geometry">
            <mxPoint x="1750" y="90" as="sourcePoint" />
            <mxPoint x="1750.25" y="140" as="targetPoint" />
          </mxGeometry>
        </mxCell>
        <mxCell id="WIWhIKJ0JJs7HtybIRrX-296" value="" style="endArrow=classic;html=1;" parent="1" source="WIWhIKJ0JJs7HtybIRrX-286" edge="1">
          <mxGeometry width="50" height="50" relative="1" as="geometry">
            <mxPoint x="1603" y="453" as="sourcePoint" />
            <mxPoint x="1603.25" y="430.25" as="targetPoint" />
          </mxGeometry>
        </mxCell>
        <mxCell id="WIWhIKJ0JJs7HtybIRrX-297" value="" style="endArrow=none;dashed=1;html=1;dashPattern=1 3;strokeWidth=2;entryX=1;entryY=0.5;entryDx=0;entryDy=0;entryPerimeter=0;strokeColor=#990000;" parent="1" target="WIWhIKJ0JJs7HtybIRrX-275" edge="1">
          <mxGeometry width="50" height="50" relative="1" as="geometry">
            <mxPoint x="1580" y="605" as="sourcePoint" />
            <mxPoint x="1735" y="170" as="targetPoint" />
            <Array as="points">
              <mxPoint x="1530" y="605" />
              <mxPoint x="1530" y="449" />
            </Array>
          </mxGeometry>
        </mxCell>
        <mxCell id="WIWhIKJ0JJs7HtybIRrX-300" value="" style="endArrow=none;dashed=1;html=1;dashPattern=1 3;strokeWidth=2;exitX=1;exitY=0.5;exitDx=0;exitDy=0;entryX=0;entryY=0.5;entryDx=0;entryDy=0;entryPerimeter=0;strokeColor=#00CC66;" parent="1" source="WIWhIKJ0JJs7HtybIRrX-288" target="WIWhIKJ0JJs7HtybIRrX-282" edge="1">
          <mxGeometry width="50" height="50" relative="1" as="geometry">
            <mxPoint x="1835" y="170.00000000000006" as="sourcePoint" />
            <mxPoint x="1878.65" y="602.6375000000002" as="targetPoint" />
            <Array as="points">
              <mxPoint x="1690" y="175" />
              <mxPoint x="1690" y="599" />
            </Array>
          </mxGeometry>
        </mxCell>
        <mxCell id="WIWhIKJ0JJs7HtybIRrX-301" value="" style="endArrow=none;dashed=1;html=1;dashPattern=1 3;strokeWidth=2;entryX=0.96;entryY=0.696;entryDx=0;entryDy=0;entryPerimeter=0;" parent="1" target="WIWhIKJ0JJs7HtybIRrX-287" edge="1">
          <mxGeometry width="50" height="50" relative="1" as="geometry">
            <mxPoint x="790" y="1110" as="sourcePoint" />
            <mxPoint x="1366.75" y="477.5" as="targetPoint" />
            <Array as="points">
              <mxPoint x="890" y="1110" />
              <mxPoint x="890" y="890" />
              <mxPoint x="1710" y="890" />
              <mxPoint x="1710" y="456" />
            </Array>
          </mxGeometry>
        </mxCell>
        <mxCell id="WIWhIKJ0JJs7HtybIRrX-304" value="" style="endArrow=none;dashed=1;html=1;dashPattern=1 3;strokeWidth=2;entryX=0;entryY=0.5;entryDx=0;entryDy=0;strokeColor=#000099;" parent="1" target="WIWhIKJ0JJs7HtybIRrX-267" edge="1">
          <mxGeometry width="50" height="50" relative="1" as="geometry">
            <mxPoint x="1013" y="220" as="sourcePoint" />
            <mxPoint x="1062.75" y="190" as="targetPoint" />
            <Array as="points">
              <mxPoint x="1370" y="220" />
              <mxPoint x="1370" y="175" />
            </Array>
          </mxGeometry>
        </mxCell>
        <mxCell id="WIWhIKJ0JJs7HtybIRrX-305" value="" style="endArrow=classic;html=1;strokeColor=#000000;entryX=1.049;entryY=0.687;entryDx=0;entryDy=0;entryPerimeter=0;exitX=0.5;exitY=1;exitDx=0;exitDy=0;startArrow=classic;startFill=1;" parent="1" source="WIWhIKJ0JJs7HtybIRrX-284" target="WIWhIKJ0JJs7HtybIRrX-5" edge="1">
          <mxGeometry width="50" height="50" relative="1" as="geometry">
            <mxPoint x="1231.75" y="752" as="sourcePoint" />
            <mxPoint x="775.5" y="855" as="targetPoint" />
            <Array as="points">
              <mxPoint x="1609" y="854" />
            </Array>
          </mxGeometry>
        </mxCell>
        <mxCell id="BjGOvH2MCO8BsODzo126-1" value="No" style="edgeLabel;html=1;align=center;verticalAlign=middle;resizable=0;points=[];" parent="1" vertex="1" connectable="0">
          <mxGeometry x="1680" y="259.9734719245862" as="geometry" />
        </mxCell>
        <mxCell id="BjGOvH2MCO8BsODzo126-2" value="Complete Saga" style="shape=process;whiteSpace=wrap;html=1;backgroundOutline=1;" parent="1" vertex="1">
          <mxGeometry x="1690.5" y="342.75" width="150" height="60" as="geometry" />
        </mxCell>
        <mxCell id="BjGOvH2MCO8BsODzo126-3" value="&lt;span&gt;Handle&amp;nbsp;&lt;/span&gt;&lt;span&gt;StaticData&lt;br&gt;Found&lt;/span&gt;&lt;span&gt;&lt;br&gt;Message&lt;/span&gt;" style="shape=process;whiteSpace=wrap;html=1;backgroundOutline=1;" parent="1" vertex="1">
          <mxGeometry x="1698.5" y="144.75" width="130" height="60" as="geometry" />
        </mxCell>
        <mxCell id="BjGOvH2MCO8BsODzo126-4" value="&lt;font style=&quot;font-size: 10px&quot;&gt;Is &lt;br&gt;Static Data&amp;nbsp;&lt;br&gt;Found&lt;br&gt;Message &lt;br&gt;found&lt;/font&gt;" style="rhombus;whiteSpace=wrap;html=1;" parent="1" vertex="1">
          <mxGeometry x="1718.5" y="230.25" width="90" height="92.75" as="geometry" />
        </mxCell>
        <mxCell id="BjGOvH2MCO8BsODzo126-5" value="" style="endArrow=classic;html=1;entryX=0.5;entryY=0;entryDx=0;entryDy=0;exitX=0.5;exitY=1;exitDx=0;exitDy=0;" parent="1" edge="1">
          <mxGeometry width="50" height="50" relative="1" as="geometry">
            <mxPoint x="1763.3600000000001" y="204.75" as="sourcePoint" />
            <mxPoint x="1763.3600000000001" y="229.75" as="targetPoint" />
          </mxGeometry>
        </mxCell>
        <mxCell id="BjGOvH2MCO8BsODzo126-6" value="" style="endArrow=classic;html=1;" parent="1" source="BjGOvH2MCO8BsODzo126-4" edge="1">
          <mxGeometry width="50" height="50" relative="1" as="geometry">
            <mxPoint x="1763.5" y="373" as="sourcePoint" />
            <mxPoint x="1763.75" y="340" as="targetPoint" />
            <Array as="points">
              <mxPoint x="1763.75" y="330" />
            </Array>
          </mxGeometry>
        </mxCell>
        <mxCell id="BjGOvH2MCO8BsODzo126-7" value="Yes" style="edgeLabel;html=1;align=center;verticalAlign=middle;resizable=0;points=[];" parent="BjGOvH2MCO8BsODzo126-6" vertex="1" connectable="0">
          <mxGeometry x="0.2516" y="3" relative="1" as="geometry">
            <mxPoint x="10" y="-3.61" as="offset" />
          </mxGeometry>
        </mxCell>
        <mxCell id="BjGOvH2MCO8BsODzo126-8" value="" style="endArrow=classic;html=1;exitX=1;exitY=0.5;exitDx=0;exitDy=0;entryX=1;entryY=1;entryDx=0;entryDy=0;" parent="1" edge="1">
          <mxGeometry width="50" height="50" relative="1" as="geometry">
            <mxPoint x="1808.25" y="276.125" as="sourcePoint" />
            <mxPoint x="1828.25" y="204.75" as="targetPoint" />
            <Array as="points">
              <mxPoint x="1828.5" y="275.75" />
              <mxPoint x="1828.5" y="239.75" />
            </Array>
          </mxGeometry>
        </mxCell>
        <mxCell id="BjGOvH2MCO8BsODzo126-9" value="No" style="edgeLabel;html=1;align=center;verticalAlign=middle;resizable=0;points=[];" parent="BjGOvH2MCO8BsODzo126-8" vertex="1" connectable="0">
          <mxGeometry x="-0.5561" y="15" relative="1" as="geometry">
            <mxPoint x="24.75" y="-16.03" as="offset" />
          </mxGeometry>
        </mxCell>
        <mxCell id="BjGOvH2MCO8BsODzo126-10" value="" style="endArrow=classic;html=1;entryX=0.5;entryY=0;entryDx=0;entryDy=0;exitX=1;exitY=0.71;exitDx=0;exitDy=0;exitPerimeter=0;" parent="1" source="WIWhIKJ0JJs7HtybIRrX-177" target="BjGOvH2MCO8BsODzo126-3" edge="1">
          <mxGeometry width="50" height="50" relative="1" as="geometry">
            <mxPoint x="1430" y="80" as="sourcePoint" />
            <mxPoint x="1783.75" y="140" as="targetPoint" />
          </mxGeometry>
        </mxCell>
      </root>
    </mxGraphModel>
  </diagram>
  <diagram id="avXd6Wm2kNwAM6gHoAd9" name="Page-2">
    <mxGraphModel dx="2062" dy="1106" grid="1" gridSize="10" guides="1" tooltips="1" connect="1" arrows="1" fold="1" page="1" pageScale="1" pageWidth="850" pageHeight="1100" math="0" shadow="0">
      <root>
        <mxCell id="J8xzQSXiHovyZR_3tHrs-0" />
        <mxCell id="J8xzQSXiHovyZR_3tHrs-1" parent="J8xzQSXiHovyZR_3tHrs-0" />
        <mxCell id="LzNlBlQYHgbsulJmExsb-0" value="" style="rounded=0;whiteSpace=wrap;html=1;fillColor=#EDEDED;" parent="J8xzQSXiHovyZR_3tHrs-1" vertex="1">
          <mxGeometry y="1.25" width="490" height="199.75" as="geometry" />
        </mxCell>
        <mxCell id="LzNlBlQYHgbsulJmExsb-1" value="" style="rounded=0;whiteSpace=wrap;html=1;fillColor=#d5e8d4;strokeColor=#82b366;" parent="J8xzQSXiHovyZR_3tHrs-1" vertex="1">
          <mxGeometry x="920" y="918.63" width="360" height="470" as="geometry" />
        </mxCell>
        <mxCell id="LzNlBlQYHgbsulJmExsb-2" value="" style="rounded=0;whiteSpace=wrap;html=1;strokeColor=#d79b00;fillColor=#D4E1F5;" parent="J8xzQSXiHovyZR_3tHrs-1" vertex="1">
          <mxGeometry x="500" y="1" width="1400" height="770" as="geometry" />
        </mxCell>
        <mxCell id="LzNlBlQYHgbsulJmExsb-3" value="" style="rounded=0;whiteSpace=wrap;html=1;" parent="J8xzQSXiHovyZR_3tHrs-1" vertex="1">
          <mxGeometry x="591" y="557.25" width="410" height="202.75" as="geometry" />
        </mxCell>
        <mxCell id="LzNlBlQYHgbsulJmExsb-4" value="" style="rounded=0;whiteSpace=wrap;html=1;" parent="J8xzQSXiHovyZR_3tHrs-1" vertex="1">
          <mxGeometry x="591" y="20" width="410" height="510" as="geometry" />
        </mxCell>
        <mxCell id="LzNlBlQYHgbsulJmExsb-5" value="" style="rounded=0;orthogonalLoop=1;jettySize=auto;html=1;startArrow=classic;startFill=1;" parent="J8xzQSXiHovyZR_3tHrs-1" source="LzNlBlQYHgbsulJmExsb-19" target="LzNlBlQYHgbsulJmExsb-6" edge="1">
          <mxGeometry relative="1" as="geometry" />
        </mxCell>
        <mxCell id="LzNlBlQYHgbsulJmExsb-6" value="Enable DB" style="verticalLabelPosition=bottom;html=1;verticalAlign=top;align=center;strokeColor=none;fillColor=#00BEF2;shape=mxgraph.azure.sql_database;" parent="J8xzQSXiHovyZR_3tHrs-1" vertex="1">
          <mxGeometry x="679" y="820" width="37.5" height="50" as="geometry" />
        </mxCell>
        <mxCell id="LzNlBlQYHgbsulJmExsb-7" value="ACV2" style="verticalLabelPosition=bottom;html=1;verticalAlign=top;align=center;strokeColor=none;fillColor=#00BEF2;shape=mxgraph.azure.azure_website;pointerEvents=1;" parent="J8xzQSXiHovyZR_3tHrs-1" vertex="1">
          <mxGeometry x="507.75" y="697" width="50" height="50" as="geometry" />
        </mxCell>
        <mxCell id="LzNlBlQYHgbsulJmExsb-8" value="" style="edgeStyle=orthogonalEdgeStyle;rounded=0;orthogonalLoop=1;jettySize=auto;html=1;" parent="J8xzQSXiHovyZR_3tHrs-1" source="LzNlBlQYHgbsulJmExsb-9" target="LzNlBlQYHgbsulJmExsb-11" edge="1">
          <mxGeometry relative="1" as="geometry" />
        </mxCell>
        <mxCell id="LzNlBlQYHgbsulJmExsb-9" value="Time Triggered Function" style="verticalLabelPosition=bottom;html=1;verticalAlign=top;align=center;strokeColor=none;fillColor=#00BEF2;shape=mxgraph.azure.scheduler;pointerEvents=1;" parent="J8xzQSXiHovyZR_3tHrs-1" vertex="1">
          <mxGeometry x="53" y="46" width="40" height="50" as="geometry" />
        </mxCell>
        <mxCell id="LzNlBlQYHgbsulJmExsb-10" value="" style="edgeStyle=orthogonalEdgeStyle;rounded=0;orthogonalLoop=1;jettySize=auto;html=1;" parent="J8xzQSXiHovyZR_3tHrs-1" source="LzNlBlQYHgbsulJmExsb-11" target="LzNlBlQYHgbsulJmExsb-12" edge="1">
          <mxGeometry relative="1" as="geometry" />
        </mxCell>
        <mxCell id="LzNlBlQYHgbsulJmExsb-11" value="Publish a saga message" style="shape=process;whiteSpace=wrap;html=1;backgroundOutline=1;" parent="J8xzQSXiHovyZR_3tHrs-1" vertex="1">
          <mxGeometry x="173" y="41" width="150" height="60" as="geometry" />
        </mxCell>
        <mxCell id="LzNlBlQYHgbsulJmExsb-12" value="&lt;br&gt;Generate&lt;span&gt;Persistence&lt;/span&gt;&lt;span&gt;&lt;br&gt;&lt;/span&gt;" style="verticalLabelPosition=bottom;html=1;verticalAlign=top;align=center;strokeColor=none;fillColor=#00BEF2;shape=mxgraph.azure.message;pointerEvents=1;" parent="J8xzQSXiHovyZR_3tHrs-1" vertex="1">
          <mxGeometry x="400" y="52.5" width="50" height="37.5" as="geometry" />
        </mxCell>
        <mxCell id="LzNlBlQYHgbsulJmExsb-13" value="Azure Blob Storage" style="verticalLabelPosition=bottom;html=1;verticalAlign=top;align=center;strokeColor=none;fillColor=#00BEF2;shape=mxgraph.azure.storage_blob;" parent="J8xzQSXiHovyZR_3tHrs-1" vertex="1">
          <mxGeometry x="1338" y="1079.5" width="50" height="45" as="geometry" />
        </mxCell>
        <mxCell id="LzNlBlQYHgbsulJmExsb-14" value="&lt;br&gt;PersistenceGenerationSaga" style="verticalLabelPosition=bottom;html=1;verticalAlign=top;align=center;strokeColor=none;fillColor=#00BEF2;shape=mxgraph.azure.load_balancer_generic;pointerEvents=1;" parent="J8xzQSXiHovyZR_3tHrs-1" vertex="1">
          <mxGeometry x="772.75" y="46.25" width="37.5" height="50" as="geometry" />
        </mxCell>
        <mxCell id="LzNlBlQYHgbsulJmExsb-15" value="&lt;span&gt;GetMembersV1&lt;br&gt;&lt;/span&gt;" style="verticalLabelPosition=bottom;html=1;verticalAlign=top;align=center;strokeColor=none;fillColor=#00BEF2;shape=mxgraph.azure.message;pointerEvents=1;" parent="J8xzQSXiHovyZR_3tHrs-1" vertex="1">
          <mxGeometry x="678.75" y="440" width="50" height="37.5" as="geometry" />
        </mxCell>
        <mxCell id="LzNlBlQYHgbsulJmExsb-16" value="Publish message" style="shape=process;whiteSpace=wrap;html=1;backgroundOutline=1;" parent="J8xzQSXiHovyZR_3tHrs-1" vertex="1">
          <mxGeometry x="628.75" y="352.75" width="150" height="60" as="geometry" />
        </mxCell>
        <mxCell id="LzNlBlQYHgbsulJmExsb-17" value="" style="edgeStyle=orthogonalEdgeStyle;rounded=0;orthogonalLoop=1;jettySize=auto;html=1;" parent="J8xzQSXiHovyZR_3tHrs-1" source="LzNlBlQYHgbsulJmExsb-18" target="LzNlBlQYHgbsulJmExsb-19" edge="1">
          <mxGeometry relative="1" as="geometry" />
        </mxCell>
        <mxCell id="LzNlBlQYHgbsulJmExsb-18" value="GetMembersHandler" style="verticalLabelPosition=bottom;html=1;verticalAlign=top;align=center;strokeColor=none;fillColor=#00BEF2;shape=mxgraph.azure.traffic_manager;pointerEvents=1;" parent="J8xzQSXiHovyZR_3tHrs-1" vertex="1">
          <mxGeometry x="672.75" y="579.75" width="50" height="50" as="geometry" />
        </mxCell>
        <mxCell id="LzNlBlQYHgbsulJmExsb-19" value="Get list of members" style="shape=process;whiteSpace=wrap;html=1;backgroundOutline=1;" parent="J8xzQSXiHovyZR_3tHrs-1" vertex="1">
          <mxGeometry x="622.75" y="682" width="150" height="60" as="geometry" />
        </mxCell>
        <mxCell id="LzNlBlQYHgbsulJmExsb-20" value="" style="edgeStyle=orthogonalEdgeStyle;rounded=0;orthogonalLoop=1;jettySize=auto;html=1;" parent="J8xzQSXiHovyZR_3tHrs-1" source="LzNlBlQYHgbsulJmExsb-21" target="LzNlBlQYHgbsulJmExsb-22" edge="1">
          <mxGeometry relative="1" as="geometry" />
        </mxCell>
        <mxCell id="LzNlBlQYHgbsulJmExsb-21" value="&lt;span&gt;Publish a message with a list of members&lt;/span&gt;" style="shape=process;whiteSpace=wrap;html=1;backgroundOutline=1;" parent="J8xzQSXiHovyZR_3tHrs-1" vertex="1">
          <mxGeometry x="809" y="682" width="140" height="60" as="geometry" />
        </mxCell>
        <mxCell id="LzNlBlQYHgbsulJmExsb-22" value="&lt;span&gt;MembersFoundMessage&lt;br&gt;&lt;/span&gt;" style="verticalLabelPosition=bottom;html=1;verticalAlign=top;align=center;strokeColor=none;fillColor=#00BEF2;shape=mxgraph.azure.message;pointerEvents=1;" parent="J8xzQSXiHovyZR_3tHrs-1" vertex="1">
          <mxGeometry x="854" y="579.75" width="50" height="37.5" as="geometry" />
        </mxCell>
        <mxCell id="LzNlBlQYHgbsulJmExsb-23" value="Publish a message&lt;br&gt;for each member" style="shape=process;whiteSpace=wrap;html=1;backgroundOutline=1;" parent="J8xzQSXiHovyZR_3tHrs-1" vertex="1">
          <mxGeometry x="792.75" y="352.75" width="150" height="60" as="geometry" />
        </mxCell>
        <mxCell id="LzNlBlQYHgbsulJmExsb-24" value="&lt;span&gt;GetStaticData&lt;br&gt;&lt;/span&gt;" style="verticalLabelPosition=bottom;html=1;verticalAlign=top;align=center;strokeColor=none;fillColor=#00BEF2;shape=mxgraph.azure.message;pointerEvents=1;" parent="J8xzQSXiHovyZR_3tHrs-1" vertex="1">
          <mxGeometry x="842.75" y="440" width="50" height="37.5" as="geometry" />
        </mxCell>
        <mxCell id="LzNlBlQYHgbsulJmExsb-25" value="&lt;span&gt;Handle Members&lt;br&gt;Found&lt;br&gt;Message&lt;/span&gt;" style="shape=process;whiteSpace=wrap;html=1;backgroundOutline=1;" parent="J8xzQSXiHovyZR_3tHrs-1" vertex="1">
          <mxGeometry x="802.75" y="154.75" width="130" height="60" as="geometry" />
        </mxCell>
        <mxCell id="LzNlBlQYHgbsulJmExsb-26" value="&lt;font style=&quot;font-size: 10px&quot;&gt;Is &lt;br&gt;Members &lt;br&gt;Found&lt;br&gt;Message &lt;br&gt;found&lt;/font&gt;" style="rhombus;whiteSpace=wrap;html=1;" parent="J8xzQSXiHovyZR_3tHrs-1" vertex="1">
          <mxGeometry x="822.75" y="240.25" width="90" height="92.75" as="geometry" />
        </mxCell>
        <mxCell id="LzNlBlQYHgbsulJmExsb-27" value="&lt;span&gt;Handle&lt;/span&gt;&lt;br&gt;&lt;span&gt;Generate&amp;nbsp;&lt;br&gt;&lt;/span&gt;&lt;span&gt;Persistence&lt;/span&gt;&lt;span&gt;&lt;br&gt;Message&lt;/span&gt;" style="shape=process;whiteSpace=wrap;html=1;backgroundOutline=1;" parent="J8xzQSXiHovyZR_3tHrs-1" vertex="1">
          <mxGeometry x="638.75" y="155" width="130" height="60" as="geometry" />
        </mxCell>
        <mxCell id="LzNlBlQYHgbsulJmExsb-28" value="&lt;font&gt;&lt;span style=&quot;font-size: 10px&quot;&gt;Is &lt;/span&gt;&lt;br&gt;&lt;div&gt;&lt;/div&gt;&lt;span style=&quot;font-size: 10px&quot;&gt;Generate&lt;br&gt;Persistence&lt;/span&gt;&lt;br&gt;&lt;span style=&quot;font-size: 10px&quot;&gt;Message &lt;/span&gt;&lt;br&gt;&lt;span style=&quot;font-size: 10px&quot;&gt;found&lt;/span&gt;&lt;/font&gt;" style="rhombus;whiteSpace=wrap;html=1;" parent="J8xzQSXiHovyZR_3tHrs-1" vertex="1">
          <mxGeometry x="658.75" y="240" width="90" height="92.75" as="geometry" />
        </mxCell>
        <mxCell id="LzNlBlQYHgbsulJmExsb-29" value="" style="endArrow=classic;html=1;entryX=0.5;entryY=0;entryDx=0;entryDy=0;exitX=0.5;exitY=1;exitDx=0;exitDy=0;" parent="J8xzQSXiHovyZR_3tHrs-1" source="LzNlBlQYHgbsulJmExsb-27" target="LzNlBlQYHgbsulJmExsb-28" edge="1">
          <mxGeometry width="50" height="50" relative="1" as="geometry">
            <mxPoint x="827" y="250" as="sourcePoint" />
            <mxPoint x="877" y="200" as="targetPoint" />
          </mxGeometry>
        </mxCell>
        <mxCell id="LzNlBlQYHgbsulJmExsb-30" value="" style="endArrow=classic;html=1;entryX=0.5;entryY=0;entryDx=0;entryDy=0;" parent="J8xzQSXiHovyZR_3tHrs-1" source="LzNlBlQYHgbsulJmExsb-14" target="LzNlBlQYHgbsulJmExsb-27" edge="1">
          <mxGeometry width="50" height="50" relative="1" as="geometry">
            <mxPoint x="841" y="130" as="sourcePoint" />
            <mxPoint x="891" y="80" as="targetPoint" />
          </mxGeometry>
        </mxCell>
        <mxCell id="LzNlBlQYHgbsulJmExsb-31" value="" style="endArrow=classic;html=1;exitX=1;exitY=0.5;exitDx=0;exitDy=0;entryX=0;entryY=0.5;entryDx=0;entryDy=0;" parent="J8xzQSXiHovyZR_3tHrs-1" source="LzNlBlQYHgbsulJmExsb-19" target="LzNlBlQYHgbsulJmExsb-21" edge="1">
          <mxGeometry width="50" height="50" relative="1" as="geometry">
            <mxPoint x="761" y="740" as="sourcePoint" />
            <mxPoint x="811" y="690" as="targetPoint" />
          </mxGeometry>
        </mxCell>
        <mxCell id="LzNlBlQYHgbsulJmExsb-32" value="" style="endArrow=classic;html=1;" parent="J8xzQSXiHovyZR_3tHrs-1" source="LzNlBlQYHgbsulJmExsb-28" edge="1">
          <mxGeometry width="50" height="50" relative="1" as="geometry">
            <mxPoint x="703.75" y="382.75" as="sourcePoint" />
            <mxPoint x="704" y="350" as="targetPoint" />
          </mxGeometry>
        </mxCell>
        <mxCell id="LzNlBlQYHgbsulJmExsb-33" value="Yes" style="edgeLabel;html=1;align=center;verticalAlign=middle;resizable=0;points=[];" parent="LzNlBlQYHgbsulJmExsb-32" vertex="1" connectable="0">
          <mxGeometry x="0.4096" relative="1" as="geometry">
            <mxPoint x="13.02" y="-4.79" as="offset" />
          </mxGeometry>
        </mxCell>
        <mxCell id="LzNlBlQYHgbsulJmExsb-34" value="" style="endArrow=classic;html=1;" parent="J8xzQSXiHovyZR_3tHrs-1" source="LzNlBlQYHgbsulJmExsb-16" edge="1">
          <mxGeometry width="50" height="50" relative="1" as="geometry">
            <mxPoint x="703.75" y="462.75" as="sourcePoint" />
            <mxPoint x="704" y="440" as="targetPoint" />
          </mxGeometry>
        </mxCell>
        <mxCell id="LzNlBlQYHgbsulJmExsb-35" value="" style="endArrow=classic;html=1;exitX=1;exitY=0.5;exitDx=0;exitDy=0;entryX=1;entryY=1;entryDx=0;entryDy=0;" parent="J8xzQSXiHovyZR_3tHrs-1" source="LzNlBlQYHgbsulJmExsb-28" target="LzNlBlQYHgbsulJmExsb-27" edge="1">
          <mxGeometry width="50" height="50" relative="1" as="geometry">
            <mxPoint x="757" y="300" as="sourcePoint" />
            <mxPoint x="807" y="250" as="targetPoint" />
            <Array as="points">
              <mxPoint x="769" y="286" />
              <mxPoint x="769" y="250" />
            </Array>
          </mxGeometry>
        </mxCell>
        <mxCell id="LzNlBlQYHgbsulJmExsb-36" value="No" style="edgeLabel;html=1;align=center;verticalAlign=middle;resizable=0;points=[];" parent="LzNlBlQYHgbsulJmExsb-35" vertex="1" connectable="0">
          <mxGeometry x="-0.5561" y="15" relative="1" as="geometry">
            <mxPoint x="24.75" y="-16.03" as="offset" />
          </mxGeometry>
        </mxCell>
        <mxCell id="LzNlBlQYHgbsulJmExsb-37" value="" style="endArrow=classic;html=1;entryX=0.5;entryY=0;entryDx=0;entryDy=0;exitX=0.5;exitY=1;exitDx=0;exitDy=0;" parent="J8xzQSXiHovyZR_3tHrs-1" edge="1">
          <mxGeometry width="50" height="50" relative="1" as="geometry">
            <mxPoint x="867.6100000000001" y="214.75" as="sourcePoint" />
            <mxPoint x="867.6100000000001" y="239.75" as="targetPoint" />
          </mxGeometry>
        </mxCell>
        <mxCell id="LzNlBlQYHgbsulJmExsb-38" value="" style="endArrow=classic;html=1;" parent="J8xzQSXiHovyZR_3tHrs-1" source="LzNlBlQYHgbsulJmExsb-26" edge="1">
          <mxGeometry width="50" height="50" relative="1" as="geometry">
            <mxPoint x="867.75" y="383" as="sourcePoint" />
            <mxPoint x="868" y="350" as="targetPoint" />
            <Array as="points">
              <mxPoint x="868" y="340" />
            </Array>
          </mxGeometry>
        </mxCell>
        <mxCell id="LzNlBlQYHgbsulJmExsb-39" value="Yes" style="edgeLabel;html=1;align=center;verticalAlign=middle;resizable=0;points=[];" parent="LzNlBlQYHgbsulJmExsb-38" vertex="1" connectable="0">
          <mxGeometry x="0.2516" y="3" relative="1" as="geometry">
            <mxPoint x="10" y="-3.61" as="offset" />
          </mxGeometry>
        </mxCell>
        <mxCell id="LzNlBlQYHgbsulJmExsb-40" value="" style="endArrow=classic;html=1;exitX=1;exitY=0.5;exitDx=0;exitDy=0;entryX=1;entryY=1;entryDx=0;entryDy=0;" parent="J8xzQSXiHovyZR_3tHrs-1" edge="1">
          <mxGeometry width="50" height="50" relative="1" as="geometry">
            <mxPoint x="912.5" y="286.125" as="sourcePoint" />
            <mxPoint x="932.5" y="214.75" as="targetPoint" />
            <Array as="points">
              <mxPoint x="932.75" y="285.75" />
              <mxPoint x="932.75" y="249.75" />
            </Array>
          </mxGeometry>
        </mxCell>
        <mxCell id="LzNlBlQYHgbsulJmExsb-41" value="No" style="edgeLabel;html=1;align=center;verticalAlign=middle;resizable=0;points=[];" parent="LzNlBlQYHgbsulJmExsb-40" vertex="1" connectable="0">
          <mxGeometry x="-0.5561" y="15" relative="1" as="geometry">
            <mxPoint x="29.75" y="-16.03" as="offset" />
          </mxGeometry>
        </mxCell>
        <mxCell id="LzNlBlQYHgbsulJmExsb-42" value="" style="endArrow=classic;html=1;entryX=0.5;entryY=0;entryDx=0;entryDy=0;" parent="J8xzQSXiHovyZR_3tHrs-1" source="LzNlBlQYHgbsulJmExsb-14" target="LzNlBlQYHgbsulJmExsb-25" edge="1">
          <mxGeometry width="50" height="50" relative="1" as="geometry">
            <mxPoint x="867.75" y="150" as="sourcePoint" />
            <mxPoint x="868" y="150" as="targetPoint" />
          </mxGeometry>
        </mxCell>
        <mxCell id="LzNlBlQYHgbsulJmExsb-43" value="" style="endArrow=classic;html=1;" parent="J8xzQSXiHovyZR_3tHrs-1" source="LzNlBlQYHgbsulJmExsb-23" edge="1">
          <mxGeometry width="50" height="50" relative="1" as="geometry">
            <mxPoint x="867.75" y="462.75" as="sourcePoint" />
            <mxPoint x="868" y="440" as="targetPoint" />
          </mxGeometry>
        </mxCell>
        <mxCell id="LzNlBlQYHgbsulJmExsb-44" value="" style="endArrow=none;dashed=1;html=1;dashPattern=1 3;strokeWidth=2;entryX=0;entryY=0.5;entryDx=0;entryDy=0;entryPerimeter=0;" parent="J8xzQSXiHovyZR_3tHrs-1" source="LzNlBlQYHgbsulJmExsb-18" target="LzNlBlQYHgbsulJmExsb-15" edge="1">
          <mxGeometry width="50" height="50" relative="1" as="geometry">
            <mxPoint x="561" y="520" as="sourcePoint" />
            <mxPoint x="611" y="470" as="targetPoint" />
            <Array as="points">
              <mxPoint x="641" y="605" />
              <mxPoint x="641" y="459" />
            </Array>
          </mxGeometry>
        </mxCell>
        <mxCell id="LzNlBlQYHgbsulJmExsb-45" value="" style="rounded=0;whiteSpace=wrap;html=1;" parent="J8xzQSXiHovyZR_3tHrs-1" vertex="1">
          <mxGeometry x="1071" y="557.25" width="385" height="202.75" as="geometry" />
        </mxCell>
        <mxCell id="LzNlBlQYHgbsulJmExsb-46" value="" style="rounded=0;whiteSpace=wrap;html=1;" parent="J8xzQSXiHovyZR_3tHrs-1" vertex="1">
          <mxGeometry x="1187" y="20" width="562" height="510" as="geometry" />
        </mxCell>
        <mxCell id="LzNlBlQYHgbsulJmExsb-47" value="&lt;br&gt;GetStaticDataSaga" style="verticalLabelPosition=bottom;html=1;verticalAlign=top;align=center;strokeColor=none;fillColor=#00BEF2;shape=mxgraph.azure.load_balancer_generic;pointerEvents=1;" parent="J8xzQSXiHovyZR_3tHrs-1" vertex="1">
          <mxGeometry x="1451" y="51" width="37.5" height="50" as="geometry" />
        </mxCell>
        <mxCell id="LzNlBlQYHgbsulJmExsb-48" value="Publish message" style="shape=process;whiteSpace=wrap;html=1;backgroundOutline=1;" parent="J8xzQSXiHovyZR_3tHrs-1" vertex="1">
          <mxGeometry x="1230.75" y="352.75" width="150" height="60" as="geometry" />
        </mxCell>
        <mxCell id="LzNlBlQYHgbsulJmExsb-49" value="" style="edgeStyle=orthogonalEdgeStyle;rounded=0;orthogonalLoop=1;jettySize=auto;html=1;" parent="J8xzQSXiHovyZR_3tHrs-1" source="LzNlBlQYHgbsulJmExsb-50" target="LzNlBlQYHgbsulJmExsb-111" edge="1">
          <mxGeometry relative="1" as="geometry" />
        </mxCell>
        <mxCell id="LzNlBlQYHgbsulJmExsb-50" value="GetClientCategoryHandler" style="verticalLabelPosition=bottom;html=1;verticalAlign=top;align=center;strokeColor=none;fillColor=#00BEF2;shape=mxgraph.azure.traffic_manager;pointerEvents=1;" parent="J8xzQSXiHovyZR_3tHrs-1" vertex="1">
          <mxGeometry x="1147.75" y="579.75" width="50" height="50" as="geometry" />
        </mxCell>
        <mxCell id="LzNlBlQYHgbsulJmExsb-51" value="" style="edgeStyle=orthogonalEdgeStyle;rounded=0;orthogonalLoop=1;jettySize=auto;html=1;" parent="J8xzQSXiHovyZR_3tHrs-1" source="LzNlBlQYHgbsulJmExsb-52" edge="1">
          <mxGeometry relative="1" as="geometry">
            <mxPoint x="1354" y="617.25" as="targetPoint" />
          </mxGeometry>
        </mxCell>
        <mxCell id="LzNlBlQYHgbsulJmExsb-52" value="&lt;span&gt;Publish a message with a list of client categories&lt;/span&gt;" style="shape=process;whiteSpace=wrap;html=1;backgroundOutline=1;" parent="J8xzQSXiHovyZR_3tHrs-1" vertex="1">
          <mxGeometry x="1284" y="682" width="140" height="60" as="geometry" />
        </mxCell>
        <mxCell id="LzNlBlQYHgbsulJmExsb-55" value="&lt;span&gt;StaticData&lt;/span&gt;&lt;span&gt;Found&lt;/span&gt;&lt;span&gt;&lt;br&gt;&lt;/span&gt;" style="verticalLabelPosition=bottom;html=1;verticalAlign=top;align=center;strokeColor=none;fillColor=#00BEF2;shape=mxgraph.azure.message;pointerEvents=1;" parent="J8xzQSXiHovyZR_3tHrs-1" vertex="1">
          <mxGeometry x="1329" y="579.75" width="50" height="37.5" as="geometry" />
        </mxCell>
        <mxCell id="LzNlBlQYHgbsulJmExsb-58" value="Handle&lt;br&gt;GetStaticData Message" style="shape=process;whiteSpace=wrap;html=1;backgroundOutline=1;" parent="J8xzQSXiHovyZR_3tHrs-1" vertex="1">
          <mxGeometry x="1240.75" y="155" width="130" height="60" as="geometry" />
        </mxCell>
        <mxCell id="LzNlBlQYHgbsulJmExsb-59" value="&lt;font&gt;&lt;span style=&quot;font-size: 10px&quot;&gt;Is &lt;/span&gt;&lt;br&gt;&lt;div&gt;&lt;/div&gt;&lt;span style=&quot;font-size: 10px&quot;&gt;GetStaticData&lt;/span&gt;&lt;br&gt;&lt;span style=&quot;font-size: 10px&quot;&gt;Message &lt;/span&gt;&lt;br&gt;&lt;span style=&quot;font-size: 10px&quot;&gt;found&lt;/span&gt;&lt;/font&gt;" style="rhombus;whiteSpace=wrap;html=1;" parent="J8xzQSXiHovyZR_3tHrs-1" vertex="1">
          <mxGeometry x="1260.75" y="240" width="90" height="92.75" as="geometry" />
        </mxCell>
        <mxCell id="LzNlBlQYHgbsulJmExsb-60" value="" style="endArrow=classic;html=1;entryX=0.5;entryY=0;entryDx=0;entryDy=0;exitX=0.5;exitY=1;exitDx=0;exitDy=0;" parent="J8xzQSXiHovyZR_3tHrs-1" source="LzNlBlQYHgbsulJmExsb-58" target="LzNlBlQYHgbsulJmExsb-59" edge="1">
          <mxGeometry width="50" height="50" relative="1" as="geometry">
            <mxPoint x="1429" y="250" as="sourcePoint" />
            <mxPoint x="1479" y="200" as="targetPoint" />
          </mxGeometry>
        </mxCell>
        <mxCell id="LzNlBlQYHgbsulJmExsb-61" value="" style="endArrow=classic;html=1;entryX=0.5;entryY=0;entryDx=0;entryDy=0;" parent="J8xzQSXiHovyZR_3tHrs-1" source="LzNlBlQYHgbsulJmExsb-47" target="LzNlBlQYHgbsulJmExsb-58" edge="1">
          <mxGeometry width="50" height="50" relative="1" as="geometry">
            <mxPoint x="1443" y="130" as="sourcePoint" />
            <mxPoint x="1493" y="80" as="targetPoint" />
          </mxGeometry>
        </mxCell>
        <mxCell id="LzNlBlQYHgbsulJmExsb-62" value="" style="endArrow=classic;html=1;exitX=1;exitY=0.5;exitDx=0;exitDy=0;entryX=0;entryY=0.5;entryDx=0;entryDy=0;" parent="J8xzQSXiHovyZR_3tHrs-1" source="LzNlBlQYHgbsulJmExsb-111" target="LzNlBlQYHgbsulJmExsb-52" edge="1">
          <mxGeometry width="50" height="50" relative="1" as="geometry">
            <mxPoint x="1236" y="740" as="sourcePoint" />
            <mxPoint x="1286" y="690" as="targetPoint" />
          </mxGeometry>
        </mxCell>
        <mxCell id="LzNlBlQYHgbsulJmExsb-63" value="" style="endArrow=classic;html=1;" parent="J8xzQSXiHovyZR_3tHrs-1" source="LzNlBlQYHgbsulJmExsb-59" edge="1">
          <mxGeometry width="50" height="50" relative="1" as="geometry">
            <mxPoint x="1305.75" y="382.75" as="sourcePoint" />
            <mxPoint x="1306" y="350" as="targetPoint" />
          </mxGeometry>
        </mxCell>
        <mxCell id="LzNlBlQYHgbsulJmExsb-64" value="Yes" style="edgeLabel;html=1;align=center;verticalAlign=middle;resizable=0;points=[];" parent="LzNlBlQYHgbsulJmExsb-63" vertex="1" connectable="0">
          <mxGeometry x="0.4096" relative="1" as="geometry">
            <mxPoint x="13.02" y="-4.79" as="offset" />
          </mxGeometry>
        </mxCell>
        <mxCell id="LzNlBlQYHgbsulJmExsb-65" value="" style="endArrow=classic;html=1;" parent="J8xzQSXiHovyZR_3tHrs-1" source="LzNlBlQYHgbsulJmExsb-48" edge="1">
          <mxGeometry width="50" height="50" relative="1" as="geometry">
            <mxPoint x="1305.75" y="462.75" as="sourcePoint" />
            <mxPoint x="1306" y="440" as="targetPoint" />
          </mxGeometry>
        </mxCell>
        <mxCell id="LzNlBlQYHgbsulJmExsb-66" value="" style="endArrow=classic;html=1;exitX=1;exitY=0.5;exitDx=0;exitDy=0;entryX=1;entryY=1;entryDx=0;entryDy=0;" parent="J8xzQSXiHovyZR_3tHrs-1" source="LzNlBlQYHgbsulJmExsb-59" target="LzNlBlQYHgbsulJmExsb-58" edge="1">
          <mxGeometry width="50" height="50" relative="1" as="geometry">
            <mxPoint x="1359" y="300" as="sourcePoint" />
            <mxPoint x="1409" y="250" as="targetPoint" />
            <Array as="points">
              <mxPoint x="1371" y="286" />
              <mxPoint x="1371" y="250" />
            </Array>
          </mxGeometry>
        </mxCell>
        <mxCell id="LzNlBlQYHgbsulJmExsb-67" value="No" style="edgeLabel;html=1;align=center;verticalAlign=middle;resizable=0;points=[];" parent="LzNlBlQYHgbsulJmExsb-66" vertex="1" connectable="0">
          <mxGeometry x="-0.5561" y="15" relative="1" as="geometry">
            <mxPoint x="24.75" y="-16.03" as="offset" />
          </mxGeometry>
        </mxCell>
        <mxCell id="LzNlBlQYHgbsulJmExsb-74" value="Complete Saga" style="shape=process;whiteSpace=wrap;html=1;backgroundOutline=1;" parent="J8xzQSXiHovyZR_3tHrs-1" vertex="1">
          <mxGeometry x="1558" y="352.75" width="150" height="60" as="geometry" />
        </mxCell>
        <mxCell id="LzNlBlQYHgbsulJmExsb-75" value="&lt;span&gt;Handle&amp;nbsp;&lt;/span&gt;&lt;span&gt;StaticData&lt;br&gt;Found&lt;/span&gt;&lt;span&gt;&lt;br&gt;Message&lt;/span&gt;" style="shape=process;whiteSpace=wrap;html=1;backgroundOutline=1;" parent="J8xzQSXiHovyZR_3tHrs-1" vertex="1">
          <mxGeometry x="1568" y="154.75" width="130" height="60" as="geometry" />
        </mxCell>
        <mxCell id="LzNlBlQYHgbsulJmExsb-76" value="&lt;font style=&quot;font-size: 10px&quot;&gt;Is &lt;br&gt;Static Data&amp;nbsp;&lt;br&gt;Found&lt;br&gt;Message &lt;br&gt;found&lt;/font&gt;" style="rhombus;whiteSpace=wrap;html=1;" parent="J8xzQSXiHovyZR_3tHrs-1" vertex="1">
          <mxGeometry x="1588" y="240.25" width="90" height="92.75" as="geometry" />
        </mxCell>
        <mxCell id="LzNlBlQYHgbsulJmExsb-77" value="" style="endArrow=classic;html=1;entryX=0.5;entryY=0;entryDx=0;entryDy=0;exitX=0.5;exitY=1;exitDx=0;exitDy=0;" parent="J8xzQSXiHovyZR_3tHrs-1" edge="1">
          <mxGeometry width="50" height="50" relative="1" as="geometry">
            <mxPoint x="1632.8600000000001" y="214.75" as="sourcePoint" />
            <mxPoint x="1632.8600000000001" y="239.75" as="targetPoint" />
          </mxGeometry>
        </mxCell>
        <mxCell id="LzNlBlQYHgbsulJmExsb-78" value="" style="endArrow=classic;html=1;" parent="J8xzQSXiHovyZR_3tHrs-1" source="LzNlBlQYHgbsulJmExsb-76" edge="1">
          <mxGeometry width="50" height="50" relative="1" as="geometry">
            <mxPoint x="1633" y="383" as="sourcePoint" />
            <mxPoint x="1633.25" y="350" as="targetPoint" />
            <Array as="points">
              <mxPoint x="1633.25" y="340" />
            </Array>
          </mxGeometry>
        </mxCell>
        <mxCell id="LzNlBlQYHgbsulJmExsb-79" value="Yes" style="edgeLabel;html=1;align=center;verticalAlign=middle;resizable=0;points=[];" parent="LzNlBlQYHgbsulJmExsb-78" vertex="1" connectable="0">
          <mxGeometry x="0.2516" y="3" relative="1" as="geometry">
            <mxPoint x="10" y="-3.61" as="offset" />
          </mxGeometry>
        </mxCell>
        <mxCell id="LzNlBlQYHgbsulJmExsb-80" value="" style="endArrow=classic;html=1;exitX=1;exitY=0.5;exitDx=0;exitDy=0;entryX=1;entryY=1;entryDx=0;entryDy=0;" parent="J8xzQSXiHovyZR_3tHrs-1" edge="1">
          <mxGeometry width="50" height="50" relative="1" as="geometry">
            <mxPoint x="1677.75" y="286.125" as="sourcePoint" />
            <mxPoint x="1697.75" y="214.75" as="targetPoint" />
            <Array as="points">
              <mxPoint x="1698" y="285.75" />
              <mxPoint x="1698" y="249.75" />
            </Array>
          </mxGeometry>
        </mxCell>
        <mxCell id="LzNlBlQYHgbsulJmExsb-81" value="No" style="edgeLabel;html=1;align=center;verticalAlign=middle;resizable=0;points=[];" parent="LzNlBlQYHgbsulJmExsb-80" vertex="1" connectable="0">
          <mxGeometry x="-0.5561" y="15" relative="1" as="geometry">
            <mxPoint x="24.75" y="-16.03" as="offset" />
          </mxGeometry>
        </mxCell>
        <mxCell id="LzNlBlQYHgbsulJmExsb-82" value="" style="endArrow=classic;html=1;entryX=0.5;entryY=0;entryDx=0;entryDy=0;exitX=1;exitY=0.71;exitDx=0;exitDy=0;exitPerimeter=0;" parent="J8xzQSXiHovyZR_3tHrs-1" source="LzNlBlQYHgbsulJmExsb-47" target="LzNlBlQYHgbsulJmExsb-75" edge="1">
          <mxGeometry width="50" height="50" relative="1" as="geometry">
            <mxPoint x="1633" y="100" as="sourcePoint" />
            <mxPoint x="1633.25" y="150" as="targetPoint" />
          </mxGeometry>
        </mxCell>
        <mxCell id="LzNlBlQYHgbsulJmExsb-84" value="" style="endArrow=none;dashed=1;html=1;dashPattern=1 3;strokeWidth=2;entryX=0;entryY=0.5;entryDx=0;entryDy=0;entryPerimeter=0;strokeColor=#00994D;" parent="J8xzQSXiHovyZR_3tHrs-1" source="LzNlBlQYHgbsulJmExsb-50" target="LzNlBlQYHgbsulJmExsb-86" edge="1">
          <mxGeometry width="50" height="50" relative="1" as="geometry">
            <mxPoint x="1036" y="520" as="sourcePoint" />
            <mxPoint x="1086" y="470" as="targetPoint" />
            <Array as="points">
              <mxPoint x="1121" y="605" />
              <mxPoint x="1121" y="459" />
            </Array>
          </mxGeometry>
        </mxCell>
        <mxCell id="LzNlBlQYHgbsulJmExsb-85" value="" style="endArrow=none;dashed=1;html=1;dashPattern=1 3;strokeWidth=2;exitX=1;exitY=0.5;exitDx=0;exitDy=0;exitPerimeter=0;entryX=0;entryY=0.5;entryDx=0;entryDy=0;strokeColor=#0000FF;" parent="J8xzQSXiHovyZR_3tHrs-1" source="LzNlBlQYHgbsulJmExsb-24" target="LzNlBlQYHgbsulJmExsb-58" edge="1">
          <mxGeometry width="50" height="50" relative="1" as="geometry">
            <mxPoint x="1221" y="410" as="sourcePoint" />
            <mxPoint x="1271" y="360" as="targetPoint" />
            <Array as="points">
              <mxPoint x="1081" y="459" />
              <mxPoint x="1081" y="185" />
            </Array>
          </mxGeometry>
        </mxCell>
        <mxCell id="LzNlBlQYHgbsulJmExsb-86" value="&lt;span&gt;GetClientCategoriesV1&lt;br&gt;&lt;/span&gt;" style="verticalLabelPosition=bottom;html=1;verticalAlign=top;align=center;strokeColor=none;fillColor=#00BEF2;shape=mxgraph.azure.message;pointerEvents=1;" parent="J8xzQSXiHovyZR_3tHrs-1" vertex="1">
          <mxGeometry x="1280.75" y="440" width="50" height="37.5" as="geometry" />
        </mxCell>
        <mxCell id="LzNlBlQYHgbsulJmExsb-87" value="" style="endArrow=none;dashed=1;html=1;dashPattern=1 3;strokeWidth=2;exitX=0;exitY=0.5;exitDx=0;exitDy=0;entryX=0.048;entryY=0.737;entryDx=0;entryDy=0;entryPerimeter=0;strokeColor=#00CC66;" parent="J8xzQSXiHovyZR_3tHrs-1" source="LzNlBlQYHgbsulJmExsb-25" target="LzNlBlQYHgbsulJmExsb-22" edge="1">
          <mxGeometry width="50" height="50" relative="1" as="geometry">
            <mxPoint x="801" y="210" as="sourcePoint" />
            <mxPoint x="851" y="160" as="targetPoint" />
            <Array as="points">
              <mxPoint x="791" y="185" />
              <mxPoint x="791" y="607" />
            </Array>
          </mxGeometry>
        </mxCell>
        <mxCell id="LzNlBlQYHgbsulJmExsb-89" value="" style="rounded=0;whiteSpace=wrap;html=1;fillColor=#d5e8d4;strokeColor=#82b366;" parent="J8xzQSXiHovyZR_3tHrs-1" vertex="1">
          <mxGeometry x="500" y="918.63" width="360" height="470" as="geometry" />
        </mxCell>
        <mxCell id="LzNlBlQYHgbsulJmExsb-90" value="Enable API&lt;br&gt;" style="verticalLabelPosition=bottom;html=1;verticalAlign=top;align=center;strokeColor=none;fillColor=#00BEF2;shape=mxgraph.azure.azure_website;pointerEvents=1;" parent="J8xzQSXiHovyZR_3tHrs-1" vertex="1">
          <mxGeometry x="507.75" y="1310" width="50" height="50" as="geometry" />
        </mxCell>
        <mxCell id="LzNlBlQYHgbsulJmExsb-91" value="" style="rounded=0;whiteSpace=wrap;html=1;" parent="J8xzQSXiHovyZR_3tHrs-1" vertex="1">
          <mxGeometry x="587.75" y="947.25" width="252.25" height="412.75" as="geometry" />
        </mxCell>
        <mxCell id="LzNlBlQYHgbsulJmExsb-92" value="GenerateMaterializedViewHandler" style="verticalLabelPosition=bottom;html=1;verticalAlign=top;align=center;strokeColor=none;fillColor=#00BEF2;shape=mxgraph.azure.traffic_manager;pointerEvents=1;" parent="J8xzQSXiHovyZR_3tHrs-1" vertex="1">
          <mxGeometry x="669.5" y="969.75" width="50" height="50" as="geometry" />
        </mxCell>
        <mxCell id="LzNlBlQYHgbsulJmExsb-93" value="Handle&lt;br&gt;Static Data Found&lt;br&gt;Message" style="shape=process;whiteSpace=wrap;html=1;backgroundOutline=1;" parent="J8xzQSXiHovyZR_3tHrs-1" vertex="1">
          <mxGeometry x="619.5" y="1072" width="150" height="60" as="geometry" />
        </mxCell>
        <mxCell id="LzNlBlQYHgbsulJmExsb-94" value="" style="endArrow=classic;html=1;entryX=0.5;entryY=0;entryDx=0;entryDy=0;exitX=0.5;exitY=1;exitDx=0;exitDy=0;exitPerimeter=0;" parent="J8xzQSXiHovyZR_3tHrs-1" source="LzNlBlQYHgbsulJmExsb-92" target="LzNlBlQYHgbsulJmExsb-93" edge="1">
          <mxGeometry width="50" height="50" relative="1" as="geometry">
            <mxPoint x="680" y="1060" as="sourcePoint" />
            <mxPoint x="730" y="1010" as="targetPoint" />
          </mxGeometry>
        </mxCell>
        <mxCell id="LzNlBlQYHgbsulJmExsb-95" value="Call Materialized View Service to Upsert Materialized View" style="shape=process;whiteSpace=wrap;html=1;backgroundOutline=1;" parent="J8xzQSXiHovyZR_3tHrs-1" vertex="1">
          <mxGeometry x="619.5" y="1269.75" width="150" height="60" as="geometry" />
        </mxCell>
        <mxCell id="LzNlBlQYHgbsulJmExsb-96" value="&lt;font&gt;&lt;span style=&quot;font-size: 10px&quot;&gt;Is &lt;/span&gt;&lt;br&gt;&lt;div&gt;&lt;/div&gt;&lt;div&gt;&lt;span style=&quot;font-size: 10px&quot;&gt;Generate&lt;/span&gt;&lt;/div&gt;&lt;div&gt;&lt;span style=&quot;font-size: 10px&quot;&gt;Materialized View&lt;/span&gt;&lt;/div&gt;&lt;span style=&quot;font-size: 10px&quot;&gt;Message &lt;/span&gt;&lt;br&gt;&lt;span style=&quot;font-size: 10px&quot;&gt;found&lt;/span&gt;&lt;/font&gt;" style="rhombus;whiteSpace=wrap;html=1;" parent="J8xzQSXiHovyZR_3tHrs-1" vertex="1">
          <mxGeometry x="649.5" y="1157" width="90" height="92.75" as="geometry" />
        </mxCell>
        <mxCell id="LzNlBlQYHgbsulJmExsb-97" value="" style="endArrow=classic;html=1;entryX=0.5;entryY=0;entryDx=0;entryDy=0;exitX=0.5;exitY=1;exitDx=0;exitDy=0;" parent="J8xzQSXiHovyZR_3tHrs-1" target="LzNlBlQYHgbsulJmExsb-96" edge="1">
          <mxGeometry width="50" height="50" relative="1" as="geometry">
            <mxPoint x="694.5" y="1132" as="sourcePoint" />
            <mxPoint x="867.75" y="1117" as="targetPoint" />
          </mxGeometry>
        </mxCell>
        <mxCell id="LzNlBlQYHgbsulJmExsb-98" value="" style="endArrow=classic;html=1;exitX=1;exitY=0.5;exitDx=0;exitDy=0;entryX=1;entryY=1;entryDx=0;entryDy=0;" parent="J8xzQSXiHovyZR_3tHrs-1" source="LzNlBlQYHgbsulJmExsb-96" edge="1">
          <mxGeometry width="50" height="50" relative="1" as="geometry">
            <mxPoint x="747.75" y="1217" as="sourcePoint" />
            <mxPoint x="759.5" y="1132" as="targetPoint" />
            <Array as="points">
              <mxPoint x="759.75" y="1203" />
              <mxPoint x="759.75" y="1167" />
            </Array>
          </mxGeometry>
        </mxCell>
        <mxCell id="LzNlBlQYHgbsulJmExsb-99" value="No" style="edgeLabel;html=1;align=center;verticalAlign=middle;resizable=0;points=[];" parent="LzNlBlQYHgbsulJmExsb-98" vertex="1" connectable="0">
          <mxGeometry x="-0.5561" y="15" relative="1" as="geometry">
            <mxPoint x="24.75" y="-16.03" as="offset" />
          </mxGeometry>
        </mxCell>
        <mxCell id="LzNlBlQYHgbsulJmExsb-100" value="" style="endArrow=classic;html=1;strokeColor=#000000;" parent="J8xzQSXiHovyZR_3tHrs-1" source="LzNlBlQYHgbsulJmExsb-96" edge="1">
          <mxGeometry width="50" height="50" relative="1" as="geometry">
            <mxPoint x="694.5" y="1299.75" as="sourcePoint" />
            <mxPoint x="695" y="1270" as="targetPoint" />
          </mxGeometry>
        </mxCell>
        <mxCell id="LzNlBlQYHgbsulJmExsb-101" value="Yes" style="edgeLabel;html=1;align=center;verticalAlign=middle;resizable=0;points=[];" parent="LzNlBlQYHgbsulJmExsb-100" vertex="1" connectable="0">
          <mxGeometry x="0.3475" y="1" relative="1" as="geometry">
            <mxPoint x="11.8" y="-3.39" as="offset" />
          </mxGeometry>
        </mxCell>
        <mxCell id="LzNlBlQYHgbsulJmExsb-102" value="" style="endArrow=none;dashed=1;html=1;dashPattern=1 3;strokeWidth=2;entryX=0;entryY=0.5;entryDx=0;entryDy=0;" parent="J8xzQSXiHovyZR_3tHrs-1" source="LzNlBlQYHgbsulJmExsb-12" target="LzNlBlQYHgbsulJmExsb-27" edge="1">
          <mxGeometry width="50" height="50" relative="1" as="geometry">
            <mxPoint x="463" y="121" as="sourcePoint" />
            <mxPoint x="533.7106781186548" y="71" as="targetPoint" />
            <Array as="points">
              <mxPoint x="550" y="71" />
              <mxPoint x="550" y="185" />
            </Array>
          </mxGeometry>
        </mxCell>
        <mxCell id="LzNlBlQYHgbsulJmExsb-103" value="Ct Core File Storage" style="verticalLabelPosition=bottom;html=1;verticalAlign=top;align=center;strokeColor=none;fillColor=#00BEF2;shape=mxgraph.azure.azure_website;pointerEvents=1;" parent="J8xzQSXiHovyZR_3tHrs-1" vertex="1">
          <mxGeometry x="953" y="1309" width="50" height="50" as="geometry" />
        </mxCell>
        <mxCell id="LzNlBlQYHgbsulJmExsb-104" value="" style="rounded=0;whiteSpace=wrap;html=1;" parent="J8xzQSXiHovyZR_3tHrs-1" vertex="1">
          <mxGeometry x="1017.5" y="946.25" width="252.25" height="412.75" as="geometry" />
        </mxCell>
        <mxCell id="LzNlBlQYHgbsulJmExsb-105" value="" style="endArrow=none;dashed=1;html=1;dashPattern=1 3;strokeWidth=2;entryX=1;entryY=0.5;entryDx=0;entryDy=0;entryPerimeter=0;exitX=1;exitY=0.5;exitDx=0;exitDy=0;" parent="J8xzQSXiHovyZR_3tHrs-1" source="LzNlBlQYHgbsulJmExsb-93" target="LzNlBlQYHgbsulJmExsb-55" edge="1">
          <mxGeometry width="50" height="50" relative="1" as="geometry">
            <mxPoint x="940" y="510" as="sourcePoint" />
            <mxPoint x="990" y="460" as="targetPoint" />
            <Array as="points">
              <mxPoint x="880" y="1100" />
              <mxPoint x="880" y="880" />
              <mxPoint x="1440" y="880" />
              <mxPoint x="1440" y="599" />
            </Array>
          </mxGeometry>
        </mxCell>
        <mxCell id="LzNlBlQYHgbsulJmExsb-106" value="MaterializedViewService" style="verticalLabelPosition=bottom;html=1;verticalAlign=top;align=center;strokeColor=none;fillColor=#00BEF2;shape=mxgraph.azure.service_endpoint;" parent="J8xzQSXiHovyZR_3tHrs-1" vertex="1">
          <mxGeometry x="1110" y="984.75" width="50" height="20" as="geometry" />
        </mxCell>
        <mxCell id="LzNlBlQYHgbsulJmExsb-107" value="Upsert Materialized View to Blob Storage" style="shape=process;whiteSpace=wrap;html=1;backgroundOutline=1;" parent="J8xzQSXiHovyZR_3tHrs-1" vertex="1">
          <mxGeometry x="1067.75" y="1072" width="150" height="60" as="geometry" />
        </mxCell>
        <mxCell id="LzNlBlQYHgbsulJmExsb-108" value="" style="endArrow=classic;html=1;strokeColor=#000000;entryX=0;entryY=0.5;entryDx=0;entryDy=0;" parent="J8xzQSXiHovyZR_3tHrs-1" source="LzNlBlQYHgbsulJmExsb-95" target="LzNlBlQYHgbsulJmExsb-107" edge="1">
          <mxGeometry width="50" height="50" relative="1" as="geometry">
            <mxPoint x="769.5" y="1349.75" as="sourcePoint" />
            <mxPoint x="840.2106781186548" y="1299.75" as="targetPoint" />
            <Array as="points">
              <mxPoint x="990" y="1300" />
              <mxPoint x="990" y="1102" />
            </Array>
          </mxGeometry>
        </mxCell>
        <mxCell id="LzNlBlQYHgbsulJmExsb-109" value="" style="endArrow=classic;html=1;strokeColor=#000000;entryX=0;entryY=0.5;entryDx=0;entryDy=0;entryPerimeter=0;" parent="J8xzQSXiHovyZR_3tHrs-1" source="LzNlBlQYHgbsulJmExsb-107" target="LzNlBlQYHgbsulJmExsb-13" edge="1">
          <mxGeometry width="50" height="50" relative="1" as="geometry">
            <mxPoint x="1180" y="1152" as="sourcePoint" />
            <mxPoint x="1250.7106781186549" y="1102" as="targetPoint" />
          </mxGeometry>
        </mxCell>
        <mxCell id="LzNlBlQYHgbsulJmExsb-110" value="" style="endArrow=classic;html=1;strokeColor=#000000;entryX=1;entryY=0.5;entryDx=0;entryDy=0;entryPerimeter=0;exitX=0.5;exitY=1;exitDx=0;exitDy=0;startArrow=classic;startFill=1;" parent="J8xzQSXiHovyZR_3tHrs-1" source="LzNlBlQYHgbsulJmExsb-111" target="LzNlBlQYHgbsulJmExsb-6" edge="1">
          <mxGeometry width="50" height="50" relative="1" as="geometry">
            <mxPoint x="1261" y="740" as="sourcePoint" />
            <mxPoint x="1241" y="770" as="targetPoint" />
            <Array as="points">
              <mxPoint x="1173" y="845" />
            </Array>
          </mxGeometry>
        </mxCell>
        <mxCell id="LzNlBlQYHgbsulJmExsb-111" value="Get list of client categories" style="shape=process;whiteSpace=wrap;html=1;backgroundOutline=1;" parent="J8xzQSXiHovyZR_3tHrs-1" vertex="1">
          <mxGeometry x="1097.75" y="682" width="150" height="60" as="geometry" />
        </mxCell>
        <mxCell id="LzNlBlQYHgbsulJmExsb-112" value="AZURE" style="verticalLabelPosition=bottom;html=1;verticalAlign=top;align=center;strokeColor=none;fillColor=#00BEF2;shape=mxgraph.azure.cloud;" parent="J8xzQSXiHovyZR_3tHrs-1" vertex="1">
          <mxGeometry x="20" y="143" width="50" height="32.5" as="geometry" />
        </mxCell>
        <mxCell id="LzNlBlQYHgbsulJmExsb-113" value="Publish message" style="shape=process;whiteSpace=wrap;html=1;backgroundOutline=1;" parent="J8xzQSXiHovyZR_3tHrs-1" vertex="1">
          <mxGeometry x="1394.75" y="350.75" width="150" height="60" as="geometry" />
        </mxCell>
        <mxCell id="LzNlBlQYHgbsulJmExsb-114" value="Handle&lt;br&gt;GetStaticData Message" style="shape=process;whiteSpace=wrap;html=1;backgroundOutline=1;" parent="J8xzQSXiHovyZR_3tHrs-1" vertex="1">
          <mxGeometry x="1404.75" y="153" width="130" height="60" as="geometry" />
        </mxCell>
        <mxCell id="LzNlBlQYHgbsulJmExsb-115" value="&lt;font&gt;&lt;span style=&quot;font-size: 10px&quot;&gt;Is &lt;/span&gt;&lt;br&gt;&lt;div&gt;&lt;/div&gt;&lt;span style=&quot;font-size: 10px&quot;&gt;GetStaticData&lt;/span&gt;&lt;br&gt;&lt;span style=&quot;font-size: 10px&quot;&gt;Message &lt;/span&gt;&lt;br&gt;&lt;span style=&quot;font-size: 10px&quot;&gt;found&lt;/span&gt;&lt;/font&gt;" style="rhombus;whiteSpace=wrap;html=1;" parent="J8xzQSXiHovyZR_3tHrs-1" vertex="1">
          <mxGeometry x="1424.75" y="238" width="90" height="92.75" as="geometry" />
        </mxCell>
        <mxCell id="LzNlBlQYHgbsulJmExsb-116" value="" style="endArrow=classic;html=1;entryX=0.5;entryY=0;entryDx=0;entryDy=0;exitX=0.5;exitY=1;exitDx=0;exitDy=0;" parent="J8xzQSXiHovyZR_3tHrs-1" source="LzNlBlQYHgbsulJmExsb-114" target="LzNlBlQYHgbsulJmExsb-115" edge="1">
          <mxGeometry width="50" height="50" relative="1" as="geometry">
            <mxPoint x="1593" y="248" as="sourcePoint" />
            <mxPoint x="1643" y="198" as="targetPoint" />
          </mxGeometry>
        </mxCell>
        <mxCell id="LzNlBlQYHgbsulJmExsb-117" value="" style="endArrow=classic;html=1;" parent="J8xzQSXiHovyZR_3tHrs-1" source="LzNlBlQYHgbsulJmExsb-115" edge="1">
          <mxGeometry width="50" height="50" relative="1" as="geometry">
            <mxPoint x="1469.75" y="380.75" as="sourcePoint" />
            <mxPoint x="1470" y="348" as="targetPoint" />
          </mxGeometry>
        </mxCell>
        <mxCell id="LzNlBlQYHgbsulJmExsb-118" value="Yes" style="edgeLabel;html=1;align=center;verticalAlign=middle;resizable=0;points=[];" parent="LzNlBlQYHgbsulJmExsb-117" vertex="1" connectable="0">
          <mxGeometry x="0.4096" relative="1" as="geometry">
            <mxPoint x="13.02" y="-4.79" as="offset" />
          </mxGeometry>
        </mxCell>
        <mxCell id="LzNlBlQYHgbsulJmExsb-119" value="" style="endArrow=classic;html=1;" parent="J8xzQSXiHovyZR_3tHrs-1" source="LzNlBlQYHgbsulJmExsb-113" edge="1">
          <mxGeometry width="50" height="50" relative="1" as="geometry">
            <mxPoint x="1469.75" y="460.75" as="sourcePoint" />
            <mxPoint x="1470" y="438" as="targetPoint" />
          </mxGeometry>
        </mxCell>
        <mxCell id="LzNlBlQYHgbsulJmExsb-120" value="" style="endArrow=classic;html=1;exitX=1;exitY=0.5;exitDx=0;exitDy=0;entryX=1;entryY=1;entryDx=0;entryDy=0;" parent="J8xzQSXiHovyZR_3tHrs-1" source="LzNlBlQYHgbsulJmExsb-115" target="LzNlBlQYHgbsulJmExsb-114" edge="1">
          <mxGeometry width="50" height="50" relative="1" as="geometry">
            <mxPoint x="1523" y="298" as="sourcePoint" />
            <mxPoint x="1573" y="248" as="targetPoint" />
            <Array as="points">
              <mxPoint x="1535" y="284" />
              <mxPoint x="1535" y="248" />
            </Array>
          </mxGeometry>
        </mxCell>
        <mxCell id="LzNlBlQYHgbsulJmExsb-121" value="No" style="edgeLabel;html=1;align=center;verticalAlign=middle;resizable=0;points=[];" parent="LzNlBlQYHgbsulJmExsb-120" vertex="1" connectable="0">
          <mxGeometry x="-0.5561" y="15" relative="1" as="geometry">
            <mxPoint x="24.75" y="-16.03" as="offset" />
          </mxGeometry>
        </mxCell>
        <mxCell id="LzNlBlQYHgbsulJmExsb-122" value="&lt;span&gt;GetAdvisersV1&lt;br&gt;&lt;/span&gt;" style="verticalLabelPosition=bottom;html=1;verticalAlign=top;align=center;strokeColor=none;fillColor=#00BEF2;shape=mxgraph.azure.message;pointerEvents=1;" parent="J8xzQSXiHovyZR_3tHrs-1" vertex="1">
          <mxGeometry x="1444.75" y="438" width="50" height="37.5" as="geometry" />
        </mxCell>
        <mxCell id="LzNlBlQYHgbsulJmExsb-123" value="" style="endArrow=classic;html=1;strokeColor=#000000;exitX=0.49;exitY=1;exitDx=0;exitDy=0;exitPerimeter=0;entryX=0.5;entryY=0;entryDx=0;entryDy=0;" parent="J8xzQSXiHovyZR_3tHrs-1" source="LzNlBlQYHgbsulJmExsb-47" target="LzNlBlQYHgbsulJmExsb-114" edge="1">
          <mxGeometry width="50" height="50" relative="1" as="geometry">
            <mxPoint x="1463" y="100" as="sourcePoint" />
            <mxPoint x="1513" y="50" as="targetPoint" />
          </mxGeometry>
        </mxCell>
        <mxCell id="LzNlBlQYHgbsulJmExsb-124" value="" style="rounded=0;whiteSpace=wrap;html=1;" parent="J8xzQSXiHovyZR_3tHrs-1" vertex="1">
          <mxGeometry x="1486" y="557.25" width="390" height="202.75" as="geometry" />
        </mxCell>
        <mxCell id="LzNlBlQYHgbsulJmExsb-125" value="" style="edgeStyle=orthogonalEdgeStyle;rounded=0;orthogonalLoop=1;jettySize=auto;html=1;" parent="J8xzQSXiHovyZR_3tHrs-1" source="LzNlBlQYHgbsulJmExsb-126" target="LzNlBlQYHgbsulJmExsb-131" edge="1">
          <mxGeometry relative="1" as="geometry" />
        </mxCell>
        <mxCell id="LzNlBlQYHgbsulJmExsb-126" value="GetAdvisersHandler" style="verticalLabelPosition=bottom;html=1;verticalAlign=top;align=center;strokeColor=none;fillColor=#00BEF2;shape=mxgraph.azure.traffic_manager;pointerEvents=1;" parent="J8xzQSXiHovyZR_3tHrs-1" vertex="1">
          <mxGeometry x="1567.75" y="579.75" width="50" height="50" as="geometry" />
        </mxCell>
        <mxCell id="LzNlBlQYHgbsulJmExsb-127" value="" style="edgeStyle=orthogonalEdgeStyle;rounded=0;orthogonalLoop=1;jettySize=auto;html=1;" parent="J8xzQSXiHovyZR_3tHrs-1" source="LzNlBlQYHgbsulJmExsb-128" edge="1">
          <mxGeometry relative="1" as="geometry">
            <mxPoint x="1774" y="617.25" as="targetPoint" />
          </mxGeometry>
        </mxCell>
        <mxCell id="LzNlBlQYHgbsulJmExsb-130" value="" style="endArrow=classic;html=1;exitX=1;exitY=0.5;exitDx=0;exitDy=0;entryX=0;entryY=0.5;entryDx=0;entryDy=0;" parent="J8xzQSXiHovyZR_3tHrs-1" source="LzNlBlQYHgbsulJmExsb-131" target="LzNlBlQYHgbsulJmExsb-128" edge="1">
          <mxGeometry width="50" height="50" relative="1" as="geometry">
            <mxPoint x="1656" y="740" as="sourcePoint" />
            <mxPoint x="1706" y="690" as="targetPoint" />
          </mxGeometry>
        </mxCell>
        <mxCell id="LzNlBlQYHgbsulJmExsb-131" value="Get list of advisers" style="shape=process;whiteSpace=wrap;html=1;backgroundOutline=1;" parent="J8xzQSXiHovyZR_3tHrs-1" vertex="1">
          <mxGeometry x="1517.75" y="682" width="150" height="60" as="geometry" />
        </mxCell>
        <mxCell id="LzNlBlQYHgbsulJmExsb-133" value="&lt;span&gt;StaticData&lt;/span&gt;&lt;span&gt;Found&lt;/span&gt;&lt;span&gt;&lt;br&gt;&lt;/span&gt;" style="verticalLabelPosition=bottom;html=1;verticalAlign=top;align=center;strokeColor=none;fillColor=#00BEF2;shape=mxgraph.azure.message;pointerEvents=1;" parent="J8xzQSXiHovyZR_3tHrs-1" vertex="1">
          <mxGeometry x="1749" y="579.75" width="50" height="37.5" as="geometry" />
        </mxCell>
        <mxCell id="LzNlBlQYHgbsulJmExsb-143" value="" style="endArrow=none;dashed=1;html=1;dashPattern=1 3;strokeWidth=2;entryX=1;entryY=0.5;entryDx=0;entryDy=0;entryPerimeter=0;strokeColor=#990000;" parent="J8xzQSXiHovyZR_3tHrs-1" target="LzNlBlQYHgbsulJmExsb-122" edge="1">
          <mxGeometry width="50" height="50" relative="1" as="geometry">
            <mxPoint x="1568" y="605" as="sourcePoint" />
            <mxPoint x="1686" y="170" as="targetPoint" />
            <Array as="points">
              <mxPoint x="1553" y="605" />
              <mxPoint x="1521" y="605" />
              <mxPoint x="1521" y="510" />
              <mxPoint x="1521" y="457" />
            </Array>
          </mxGeometry>
        </mxCell>
        <mxCell id="LzNlBlQYHgbsulJmExsb-145" value="" style="endArrow=none;dashed=1;html=1;dashPattern=1 3;strokeWidth=2;entryX=1;entryY=0.5;entryDx=0;entryDy=0;entryPerimeter=0;" parent="J8xzQSXiHovyZR_3tHrs-1" target="LzNlBlQYHgbsulJmExsb-133" edge="1">
          <mxGeometry width="50" height="50" relative="1" as="geometry">
            <mxPoint x="770" y="1110" as="sourcePoint" />
            <mxPoint x="1366.75" y="477.5" as="targetPoint" />
            <Array as="points">
              <mxPoint x="890" y="1110" />
              <mxPoint x="890" y="890" />
              <mxPoint x="1860" y="880" />
              <mxPoint x="1860" y="599" />
            </Array>
          </mxGeometry>
        </mxCell>
        <mxCell id="LzNlBlQYHgbsulJmExsb-146" value="" style="endArrow=none;dashed=1;html=1;dashPattern=1 3;strokeWidth=2;entryX=0;entryY=0.5;entryDx=0;entryDy=0;strokeColor=#000099;" parent="J8xzQSXiHovyZR_3tHrs-1" target="LzNlBlQYHgbsulJmExsb-114" edge="1">
          <mxGeometry width="50" height="50" relative="1" as="geometry">
            <mxPoint x="1081" y="230" as="sourcePoint" />
            <mxPoint x="1260.75" y="200" as="targetPoint" />
            <Array as="points">
              <mxPoint x="1391" y="230" />
              <mxPoint x="1391" y="183" />
            </Array>
          </mxGeometry>
        </mxCell>
        <mxCell id="LzNlBlQYHgbsulJmExsb-147" value="" style="endArrow=classic;html=1;strokeColor=#000000;entryX=1.049;entryY=0.687;entryDx=0;entryDy=0;entryPerimeter=0;exitX=0.5;exitY=1;exitDx=0;exitDy=0;startArrow=classic;startFill=1;" parent="J8xzQSXiHovyZR_3tHrs-1" source="LzNlBlQYHgbsulJmExsb-131" target="LzNlBlQYHgbsulJmExsb-6" edge="1">
          <mxGeometry width="50" height="50" relative="1" as="geometry">
            <mxPoint x="1182.75" y="752" as="sourcePoint" />
            <mxPoint x="726.5" y="855" as="targetPoint" />
            <Array as="points">
              <mxPoint x="1593" y="855" />
            </Array>
          </mxGeometry>
        </mxCell>
        <mxCell id="LzNlBlQYHgbsulJmExsb-128" value="&lt;span&gt;Publish a message with a list of advisers&lt;/span&gt;" style="shape=process;whiteSpace=wrap;html=1;backgroundOutline=1;" parent="J8xzQSXiHovyZR_3tHrs-1" vertex="1">
          <mxGeometry x="1704" y="682" width="140" height="60" as="geometry" />
        </mxCell>
      </root>
    </mxGraphModel>
  </diagram>
  <diagram id="1751Evn-RSsRRjRXNyXF" name="Page-3">
    <mxGraphModel dx="2946" dy="1580" grid="1" gridSize="10" guides="1" tooltips="1" connect="1" arrows="1" fold="1" page="1" pageScale="1" pageWidth="850" pageHeight="1100" math="0" shadow="0">
      <root>
        <mxCell id="_HMPg-w9CTH0mhzitJa7-0" />
        <mxCell id="_HMPg-w9CTH0mhzitJa7-1" parent="_HMPg-w9CTH0mhzitJa7-0" />
        <mxCell id="_HMPg-w9CTH0mhzitJa7-2" value="" style="rounded=0;whiteSpace=wrap;html=1;fillColor=#EDEDED;" parent="_HMPg-w9CTH0mhzitJa7-1" vertex="1">
          <mxGeometry y="1.25" width="490" height="199.75" as="geometry" />
        </mxCell>
        <mxCell id="_HMPg-w9CTH0mhzitJa7-3" value="" style="rounded=0;whiteSpace=wrap;html=1;fillColor=#d5e8d4;strokeColor=#82b366;" parent="_HMPg-w9CTH0mhzitJa7-1" vertex="1">
          <mxGeometry x="920" y="918.63" width="360" height="470" as="geometry" />
        </mxCell>
        <mxCell id="_HMPg-w9CTH0mhzitJa7-4" value="" style="rounded=0;whiteSpace=wrap;html=1;strokeColor=#d79b00;fillColor=#D4E1F5;" parent="_HMPg-w9CTH0mhzitJa7-1" vertex="1">
          <mxGeometry x="500" y="1" width="1060" height="770" as="geometry" />
        </mxCell>
        <mxCell id="_HMPg-w9CTH0mhzitJa7-5" value="" style="rounded=0;whiteSpace=wrap;html=1;" parent="_HMPg-w9CTH0mhzitJa7-1" vertex="1">
          <mxGeometry x="1139" y="20" width="410" height="202.75" as="geometry" />
        </mxCell>
        <mxCell id="_HMPg-w9CTH0mhzitJa7-6" value="" style="rounded=0;whiteSpace=wrap;html=1;" parent="_HMPg-w9CTH0mhzitJa7-1" vertex="1">
          <mxGeometry x="643" y="20" width="410" height="510" as="geometry" />
        </mxCell>
        <mxCell id="_HMPg-w9CTH0mhzitJa7-8" value="Enable DB" style="verticalLabelPosition=bottom;html=1;verticalAlign=top;align=center;strokeColor=none;fillColor=#00BEF2;shape=mxgraph.azure.sql_database;" parent="_HMPg-w9CTH0mhzitJa7-1" vertex="1">
          <mxGeometry x="728" y="820" width="37.5" height="50" as="geometry" />
        </mxCell>
        <mxCell id="_HMPg-w9CTH0mhzitJa7-9" value="ACV2" style="verticalLabelPosition=bottom;html=1;verticalAlign=top;align=center;strokeColor=none;fillColor=#00BEF2;shape=mxgraph.azure.azure_website;pointerEvents=1;" parent="_HMPg-w9CTH0mhzitJa7-1" vertex="1">
          <mxGeometry x="520" y="688" width="50" height="50" as="geometry" />
        </mxCell>
        <mxCell id="_HMPg-w9CTH0mhzitJa7-10" value="" style="edgeStyle=orthogonalEdgeStyle;rounded=0;orthogonalLoop=1;jettySize=auto;html=1;" parent="_HMPg-w9CTH0mhzitJa7-1" source="_HMPg-w9CTH0mhzitJa7-11" target="_HMPg-w9CTH0mhzitJa7-13" edge="1">
          <mxGeometry relative="1" as="geometry" />
        </mxCell>
        <mxCell id="_HMPg-w9CTH0mhzitJa7-11" value="Time Triggered Function" style="verticalLabelPosition=bottom;html=1;verticalAlign=top;align=center;strokeColor=none;fillColor=#00BEF2;shape=mxgraph.azure.scheduler;pointerEvents=1;" parent="_HMPg-w9CTH0mhzitJa7-1" vertex="1">
          <mxGeometry x="53" y="46" width="40" height="50" as="geometry" />
        </mxCell>
        <mxCell id="_HMPg-w9CTH0mhzitJa7-12" value="" style="edgeStyle=orthogonalEdgeStyle;rounded=0;orthogonalLoop=1;jettySize=auto;html=1;" parent="_HMPg-w9CTH0mhzitJa7-1" source="_HMPg-w9CTH0mhzitJa7-13" target="_HMPg-w9CTH0mhzitJa7-14" edge="1">
          <mxGeometry relative="1" as="geometry" />
        </mxCell>
        <mxCell id="_HMPg-w9CTH0mhzitJa7-13" value="Publish message" style="shape=process;whiteSpace=wrap;html=1;backgroundOutline=1;" parent="_HMPg-w9CTH0mhzitJa7-1" vertex="1">
          <mxGeometry x="173" y="41" width="150" height="60" as="geometry" />
        </mxCell>
        <mxCell id="_HMPg-w9CTH0mhzitJa7-14" value="&lt;br&gt;Generate&lt;span&gt;Persistence&lt;/span&gt;&lt;span&gt;&lt;br&gt;&lt;/span&gt;" style="verticalLabelPosition=bottom;html=1;verticalAlign=top;align=center;strokeColor=none;fillColor=#00BEF2;shape=mxgraph.azure.message;pointerEvents=1;" parent="_HMPg-w9CTH0mhzitJa7-1" vertex="1">
          <mxGeometry x="400" y="52.5" width="50" height="37.5" as="geometry" />
        </mxCell>
        <mxCell id="_HMPg-w9CTH0mhzitJa7-15" value="Azure Blob Storage" style="verticalLabelPosition=bottom;html=1;verticalAlign=top;align=center;strokeColor=none;fillColor=#00BEF2;shape=mxgraph.azure.storage_blob;" parent="_HMPg-w9CTH0mhzitJa7-1" vertex="1">
          <mxGeometry x="1338" y="1079.5" width="50" height="45" as="geometry" />
        </mxCell>
        <mxCell id="_HMPg-w9CTH0mhzitJa7-17" value="&lt;span&gt;GetMembersV1&lt;br&gt;&lt;/span&gt;" style="verticalLabelPosition=bottom;html=1;verticalAlign=top;align=center;strokeColor=none;fillColor=#00BEF2;shape=mxgraph.azure.message;pointerEvents=1;" parent="_HMPg-w9CTH0mhzitJa7-1" vertex="1">
          <mxGeometry x="720.75" y="440" width="50" height="37.5" as="geometry" />
        </mxCell>
        <mxCell id="_HMPg-w9CTH0mhzitJa7-18" value="Publish message" style="shape=process;whiteSpace=wrap;html=1;backgroundOutline=1;" parent="_HMPg-w9CTH0mhzitJa7-1" vertex="1">
          <mxGeometry x="670.75" y="352.75" width="150" height="60" as="geometry" />
        </mxCell>
        <mxCell id="_HMPg-w9CTH0mhzitJa7-19" value="" style="edgeStyle=orthogonalEdgeStyle;rounded=0;orthogonalLoop=1;jettySize=auto;html=1;" parent="_HMPg-w9CTH0mhzitJa7-1" source="_HMPg-w9CTH0mhzitJa7-20" target="_HMPg-w9CTH0mhzitJa7-21" edge="1">
          <mxGeometry relative="1" as="geometry" />
        </mxCell>
        <mxCell id="_HMPg-w9CTH0mhzitJa7-20" value="GetMembersHandler" style="verticalLabelPosition=bottom;html=1;verticalAlign=top;align=center;strokeColor=none;fillColor=#00BEF2;shape=mxgraph.azure.traffic_manager;pointerEvents=1;" parent="_HMPg-w9CTH0mhzitJa7-1" vertex="1">
          <mxGeometry x="1220.75" y="42.5" width="50" height="50" as="geometry" />
        </mxCell>
        <mxCell id="_HMPg-w9CTH0mhzitJa7-21" value="Get list of members" style="shape=process;whiteSpace=wrap;html=1;backgroundOutline=1;" parent="_HMPg-w9CTH0mhzitJa7-1" vertex="1">
          <mxGeometry x="1170.75" y="144.75" width="150" height="60" as="geometry" />
        </mxCell>
        <mxCell id="_HMPg-w9CTH0mhzitJa7-22" value="" style="edgeStyle=orthogonalEdgeStyle;rounded=0;orthogonalLoop=1;jettySize=auto;html=1;" parent="_HMPg-w9CTH0mhzitJa7-1" source="_HMPg-w9CTH0mhzitJa7-23" target="_HMPg-w9CTH0mhzitJa7-24" edge="1">
          <mxGeometry relative="1" as="geometry" />
        </mxCell>
        <mxCell id="_HMPg-w9CTH0mhzitJa7-23" value="&lt;span&gt;Publish a message with a list of members&lt;/span&gt;" style="shape=process;whiteSpace=wrap;html=1;backgroundOutline=1;" parent="_HMPg-w9CTH0mhzitJa7-1" vertex="1">
          <mxGeometry x="1357" y="144.75" width="140" height="60" as="geometry" />
        </mxCell>
        <mxCell id="_HMPg-w9CTH0mhzitJa7-24" value="&lt;span&gt;MembersFoundMessage&lt;br&gt;&lt;/span&gt;" style="verticalLabelPosition=bottom;html=1;verticalAlign=top;align=center;strokeColor=none;fillColor=#00BEF2;shape=mxgraph.azure.message;pointerEvents=1;" parent="_HMPg-w9CTH0mhzitJa7-1" vertex="1">
          <mxGeometry x="1402" y="42.5" width="50" height="37.5" as="geometry" />
        </mxCell>
        <mxCell id="_HMPg-w9CTH0mhzitJa7-25" value="Publish message&lt;br&gt;for each member" style="shape=process;whiteSpace=wrap;html=1;backgroundOutline=1;" parent="_HMPg-w9CTH0mhzitJa7-1" vertex="1">
          <mxGeometry x="872" y="352.75" width="152" height="60" as="geometry" />
        </mxCell>
        <mxCell id="_HMPg-w9CTH0mhzitJa7-27" value="&lt;span&gt;Handle Members&lt;br&gt;Found&lt;br&gt;Message&lt;/span&gt;" style="shape=process;whiteSpace=wrap;html=1;backgroundOutline=1;" parent="_HMPg-w9CTH0mhzitJa7-1" vertex="1">
          <mxGeometry x="876.75" y="154.75" width="130" height="60" as="geometry" />
        </mxCell>
        <mxCell id="_HMPg-w9CTH0mhzitJa7-28" value="&lt;font style=&quot;font-size: 10px&quot;&gt;Is &lt;br&gt;Members &lt;br&gt;Found&lt;br&gt;Message &lt;br&gt;found&lt;/font&gt;" style="rhombus;whiteSpace=wrap;html=1;" parent="_HMPg-w9CTH0mhzitJa7-1" vertex="1">
          <mxGeometry x="896.75" y="240.25" width="90" height="92.75" as="geometry" />
        </mxCell>
        <mxCell id="_HMPg-w9CTH0mhzitJa7-29" value="&lt;span&gt;Handle&lt;/span&gt;&lt;br&gt;&lt;span&gt;Generate&amp;nbsp;&lt;br&gt;&lt;/span&gt;&lt;span&gt;Persistence&lt;/span&gt;&lt;span&gt;&lt;br&gt;Message&lt;/span&gt;" style="shape=process;whiteSpace=wrap;html=1;backgroundOutline=1;" parent="_HMPg-w9CTH0mhzitJa7-1" vertex="1">
          <mxGeometry x="680.75" y="155" width="130" height="60" as="geometry" />
        </mxCell>
        <mxCell id="_HMPg-w9CTH0mhzitJa7-30" value="&lt;font&gt;&lt;span style=&quot;font-size: 10px&quot;&gt;Is &lt;/span&gt;&lt;br&gt;&lt;div&gt;&lt;/div&gt;&lt;span style=&quot;font-size: 10px&quot;&gt;Generate&lt;br&gt;Persistence&lt;/span&gt;&lt;br&gt;&lt;span style=&quot;font-size: 10px&quot;&gt;Message &lt;/span&gt;&lt;br&gt;&lt;span style=&quot;font-size: 10px&quot;&gt;found&lt;/span&gt;&lt;/font&gt;" style="rhombus;whiteSpace=wrap;html=1;" parent="_HMPg-w9CTH0mhzitJa7-1" vertex="1">
          <mxGeometry x="700.75" y="240" width="90" height="92.75" as="geometry" />
        </mxCell>
        <mxCell id="_HMPg-w9CTH0mhzitJa7-31" value="" style="endArrow=classic;html=1;entryX=0.5;entryY=0;entryDx=0;entryDy=0;exitX=0.5;exitY=1;exitDx=0;exitDy=0;" parent="_HMPg-w9CTH0mhzitJa7-1" source="_HMPg-w9CTH0mhzitJa7-29" target="_HMPg-w9CTH0mhzitJa7-30" edge="1">
          <mxGeometry width="50" height="50" relative="1" as="geometry">
            <mxPoint x="869" y="250" as="sourcePoint" />
            <mxPoint x="919" y="200" as="targetPoint" />
          </mxGeometry>
        </mxCell>
        <mxCell id="_HMPg-w9CTH0mhzitJa7-32" value="" style="endArrow=classic;html=1;entryX=0.5;entryY=0;entryDx=0;entryDy=0;exitX=0.14;exitY=0.85;exitDx=0;exitDy=0;exitPerimeter=0;" parent="_HMPg-w9CTH0mhzitJa7-1" source="_HMPg-w9CTH0mhzitJa7-126" target="_HMPg-w9CTH0mhzitJa7-29" edge="1">
          <mxGeometry width="50" height="50" relative="1" as="geometry">
            <mxPoint x="814.75" y="89.14529914529919" as="sourcePoint" />
            <mxPoint x="933" y="80" as="targetPoint" />
          </mxGeometry>
        </mxCell>
        <mxCell id="_HMPg-w9CTH0mhzitJa7-33" value="" style="endArrow=classic;html=1;exitX=1;exitY=0.5;exitDx=0;exitDy=0;entryX=0;entryY=0.5;entryDx=0;entryDy=0;" parent="_HMPg-w9CTH0mhzitJa7-1" source="_HMPg-w9CTH0mhzitJa7-21" target="_HMPg-w9CTH0mhzitJa7-23" edge="1">
          <mxGeometry width="50" height="50" relative="1" as="geometry">
            <mxPoint x="1309" y="202.75" as="sourcePoint" />
            <mxPoint x="1359" y="152.75" as="targetPoint" />
          </mxGeometry>
        </mxCell>
        <mxCell id="_HMPg-w9CTH0mhzitJa7-34" value="" style="endArrow=classic;html=1;" parent="_HMPg-w9CTH0mhzitJa7-1" source="_HMPg-w9CTH0mhzitJa7-30" edge="1">
          <mxGeometry width="50" height="50" relative="1" as="geometry">
            <mxPoint x="745.75" y="382.75" as="sourcePoint" />
            <mxPoint x="746" y="350" as="targetPoint" />
          </mxGeometry>
        </mxCell>
        <mxCell id="_HMPg-w9CTH0mhzitJa7-35" value="Yes" style="edgeLabel;html=1;align=center;verticalAlign=middle;resizable=0;points=[];" parent="_HMPg-w9CTH0mhzitJa7-34" vertex="1" connectable="0">
          <mxGeometry x="0.4096" relative="1" as="geometry">
            <mxPoint x="13.02" y="-4.79" as="offset" />
          </mxGeometry>
        </mxCell>
        <mxCell id="_HMPg-w9CTH0mhzitJa7-36" value="" style="endArrow=classic;html=1;" parent="_HMPg-w9CTH0mhzitJa7-1" source="_HMPg-w9CTH0mhzitJa7-18" edge="1">
          <mxGeometry width="50" height="50" relative="1" as="geometry">
            <mxPoint x="745.75" y="462.75" as="sourcePoint" />
            <mxPoint x="746" y="440" as="targetPoint" />
          </mxGeometry>
        </mxCell>
        <mxCell id="_HMPg-w9CTH0mhzitJa7-37" value="" style="endArrow=classic;html=1;exitX=1;exitY=0.5;exitDx=0;exitDy=0;entryX=1;entryY=1;entryDx=0;entryDy=0;" parent="_HMPg-w9CTH0mhzitJa7-1" source="_HMPg-w9CTH0mhzitJa7-30" target="_HMPg-w9CTH0mhzitJa7-29" edge="1">
          <mxGeometry width="50" height="50" relative="1" as="geometry">
            <mxPoint x="799" y="300" as="sourcePoint" />
            <mxPoint x="849" y="250" as="targetPoint" />
            <Array as="points">
              <mxPoint x="811" y="286" />
              <mxPoint x="811" y="250" />
            </Array>
          </mxGeometry>
        </mxCell>
        <mxCell id="_HMPg-w9CTH0mhzitJa7-38" value="No" style="edgeLabel;html=1;align=center;verticalAlign=middle;resizable=0;points=[];" parent="_HMPg-w9CTH0mhzitJa7-37" vertex="1" connectable="0">
          <mxGeometry x="-0.5561" y="15" relative="1" as="geometry">
            <mxPoint x="35.75" y="-16.03" as="offset" />
          </mxGeometry>
        </mxCell>
        <mxCell id="_HMPg-w9CTH0mhzitJa7-39" value="" style="endArrow=classic;html=1;entryX=0.5;entryY=0;entryDx=0;entryDy=0;exitX=0.5;exitY=1;exitDx=0;exitDy=0;" parent="_HMPg-w9CTH0mhzitJa7-1" edge="1">
          <mxGeometry width="50" height="50" relative="1" as="geometry">
            <mxPoint x="941.6100000000001" y="214.75" as="sourcePoint" />
            <mxPoint x="941.6100000000001" y="239.75" as="targetPoint" />
          </mxGeometry>
        </mxCell>
        <mxCell id="_HMPg-w9CTH0mhzitJa7-40" value="" style="endArrow=classic;html=1;" parent="_HMPg-w9CTH0mhzitJa7-1" source="_HMPg-w9CTH0mhzitJa7-28" edge="1">
          <mxGeometry width="50" height="50" relative="1" as="geometry">
            <mxPoint x="941.75" y="383" as="sourcePoint" />
            <mxPoint x="942" y="350" as="targetPoint" />
            <Array as="points">
              <mxPoint x="942" y="340" />
            </Array>
          </mxGeometry>
        </mxCell>
        <mxCell id="_HMPg-w9CTH0mhzitJa7-41" value="Yes" style="edgeLabel;html=1;align=center;verticalAlign=middle;resizable=0;points=[];" parent="_HMPg-w9CTH0mhzitJa7-40" vertex="1" connectable="0">
          <mxGeometry x="0.2516" y="3" relative="1" as="geometry">
            <mxPoint x="10" y="-3.61" as="offset" />
          </mxGeometry>
        </mxCell>
        <mxCell id="_HMPg-w9CTH0mhzitJa7-42" value="" style="endArrow=classic;html=1;exitX=1;exitY=0.5;exitDx=0;exitDy=0;entryX=1;entryY=1;entryDx=0;entryDy=0;" parent="_HMPg-w9CTH0mhzitJa7-1" edge="1">
          <mxGeometry width="50" height="50" relative="1" as="geometry">
            <mxPoint x="986.5000000000005" y="286.1250000000002" as="sourcePoint" />
            <mxPoint x="1006.5000000000005" y="214.75" as="targetPoint" />
            <Array as="points">
              <mxPoint x="1006.75" y="285.75" />
              <mxPoint x="1006.75" y="249.75" />
            </Array>
          </mxGeometry>
        </mxCell>
        <mxCell id="_HMPg-w9CTH0mhzitJa7-43" value="No" style="edgeLabel;html=1;align=center;verticalAlign=middle;resizable=0;points=[];" parent="_HMPg-w9CTH0mhzitJa7-42" vertex="1" connectable="0">
          <mxGeometry x="-0.5561" y="15" relative="1" as="geometry">
            <mxPoint x="29.75" y="-16.03" as="offset" />
          </mxGeometry>
        </mxCell>
        <mxCell id="_HMPg-w9CTH0mhzitJa7-44" value="" style="endArrow=classic;html=1;entryX=0.5;entryY=0;entryDx=0;entryDy=0;exitX=0.86;exitY=0.85;exitDx=0;exitDy=0;exitPerimeter=0;" parent="_HMPg-w9CTH0mhzitJa7-1" source="_HMPg-w9CTH0mhzitJa7-126" target="_HMPg-w9CTH0mhzitJa7-27" edge="1">
          <mxGeometry width="50" height="50" relative="1" as="geometry">
            <mxPoint x="884.25" y="91.78278688524597" as="sourcePoint" />
            <mxPoint x="942" y="150" as="targetPoint" />
          </mxGeometry>
        </mxCell>
        <mxCell id="_HMPg-w9CTH0mhzitJa7-45" value="" style="endArrow=classic;html=1;entryX=0.5;entryY=0;entryDx=0;entryDy=0;entryPerimeter=0;" parent="_HMPg-w9CTH0mhzitJa7-1" source="_HMPg-w9CTH0mhzitJa7-25" target="_HMPg-w9CTH0mhzitJa7-77" edge="1">
          <mxGeometry width="50" height="50" relative="1" as="geometry">
            <mxPoint x="920.75" y="462.75" as="sourcePoint" />
            <mxPoint x="921" y="440" as="targetPoint" />
          </mxGeometry>
        </mxCell>
        <mxCell id="_HMPg-w9CTH0mhzitJa7-47" value="" style="rounded=0;whiteSpace=wrap;html=1;" parent="_HMPg-w9CTH0mhzitJa7-1" vertex="1">
          <mxGeometry x="1150" y="300.25" width="385" height="202.75" as="geometry" />
        </mxCell>
        <mxCell id="_HMPg-w9CTH0mhzitJa7-51" value="" style="edgeStyle=orthogonalEdgeStyle;rounded=0;orthogonalLoop=1;jettySize=auto;html=1;" parent="_HMPg-w9CTH0mhzitJa7-1" source="_HMPg-w9CTH0mhzitJa7-52" target="_HMPg-w9CTH0mhzitJa7-101" edge="1">
          <mxGeometry relative="1" as="geometry" />
        </mxCell>
        <mxCell id="_HMPg-w9CTH0mhzitJa7-52" value="GetClientCategoryHandler" style="verticalLabelPosition=bottom;html=1;verticalAlign=top;align=center;strokeColor=none;fillColor=#00BEF2;shape=mxgraph.azure.traffic_manager;pointerEvents=1;" parent="_HMPg-w9CTH0mhzitJa7-1" vertex="1">
          <mxGeometry x="1226.75" y="322.75" width="50" height="50" as="geometry" />
        </mxCell>
        <mxCell id="_HMPg-w9CTH0mhzitJa7-53" value="" style="edgeStyle=orthogonalEdgeStyle;rounded=0;orthogonalLoop=1;jettySize=auto;html=1;" parent="_HMPg-w9CTH0mhzitJa7-1" source="_HMPg-w9CTH0mhzitJa7-54" edge="1">
          <mxGeometry relative="1" as="geometry">
            <mxPoint x="1433" y="360.25" as="targetPoint" />
          </mxGeometry>
        </mxCell>
        <mxCell id="_HMPg-w9CTH0mhzitJa7-54" value="&lt;span&gt;Publish a message with a list of client categories&lt;/span&gt;" style="shape=process;whiteSpace=wrap;html=1;backgroundOutline=1;" parent="_HMPg-w9CTH0mhzitJa7-1" vertex="1">
          <mxGeometry x="1363" y="425" width="140" height="60" as="geometry" />
        </mxCell>
        <mxCell id="_HMPg-w9CTH0mhzitJa7-55" value="&lt;span&gt;StaticData&lt;/span&gt;&lt;span&gt;Found&lt;/span&gt;&lt;span&gt;&lt;br&gt;&lt;/span&gt;" style="verticalLabelPosition=bottom;html=1;verticalAlign=top;align=center;strokeColor=none;fillColor=#00BEF2;shape=mxgraph.azure.message;pointerEvents=1;" parent="_HMPg-w9CTH0mhzitJa7-1" vertex="1">
          <mxGeometry x="1408" y="322.75" width="50" height="37.5" as="geometry" />
        </mxCell>
        <mxCell id="_HMPg-w9CTH0mhzitJa7-60" value="" style="endArrow=classic;html=1;exitX=1;exitY=0.5;exitDx=0;exitDy=0;entryX=0;entryY=0.5;entryDx=0;entryDy=0;" parent="_HMPg-w9CTH0mhzitJa7-1" source="_HMPg-w9CTH0mhzitJa7-101" target="_HMPg-w9CTH0mhzitJa7-54" edge="1">
          <mxGeometry width="50" height="50" relative="1" as="geometry">
            <mxPoint x="1315" y="483" as="sourcePoint" />
            <mxPoint x="1365" y="433" as="targetPoint" />
          </mxGeometry>
        </mxCell>
        <mxCell id="_HMPg-w9CTH0mhzitJa7-77" value="&lt;span&gt;GetClientCategoriesV1&lt;br&gt;&lt;/span&gt;" style="verticalLabelPosition=bottom;html=1;verticalAlign=top;align=center;strokeColor=none;fillColor=#00BEF2;shape=mxgraph.azure.message;pointerEvents=1;" parent="_HMPg-w9CTH0mhzitJa7-1" vertex="1">
          <mxGeometry x="872" y="440" width="50" height="37.5" as="geometry" />
        </mxCell>
        <mxCell id="_HMPg-w9CTH0mhzitJa7-79" value="" style="rounded=0;whiteSpace=wrap;html=1;fillColor=#d5e8d4;strokeColor=#82b366;" parent="_HMPg-w9CTH0mhzitJa7-1" vertex="1">
          <mxGeometry x="500" y="918.63" width="360" height="470" as="geometry" />
        </mxCell>
        <mxCell id="_HMPg-w9CTH0mhzitJa7-80" value="Enable API&lt;br&gt;" style="verticalLabelPosition=bottom;html=1;verticalAlign=top;align=center;strokeColor=none;fillColor=#00BEF2;shape=mxgraph.azure.azure_website;pointerEvents=1;" parent="_HMPg-w9CTH0mhzitJa7-1" vertex="1">
          <mxGeometry x="507.75" y="1310" width="50" height="50" as="geometry" />
        </mxCell>
        <mxCell id="_HMPg-w9CTH0mhzitJa7-81" value="" style="rounded=0;whiteSpace=wrap;html=1;" parent="_HMPg-w9CTH0mhzitJa7-1" vertex="1">
          <mxGeometry x="587.75" y="947.25" width="252.25" height="412.75" as="geometry" />
        </mxCell>
        <mxCell id="_HMPg-w9CTH0mhzitJa7-82" value="GenerateMaterializedViewHandler" style="verticalLabelPosition=bottom;html=1;verticalAlign=top;align=center;strokeColor=none;fillColor=#00BEF2;shape=mxgraph.azure.traffic_manager;pointerEvents=1;" parent="_HMPg-w9CTH0mhzitJa7-1" vertex="1">
          <mxGeometry x="684.5" y="969.75" width="50" height="50" as="geometry" />
        </mxCell>
        <mxCell id="_HMPg-w9CTH0mhzitJa7-83" value="Handle&lt;br&gt;Static Data Found&lt;br&gt;Message" style="shape=process;whiteSpace=wrap;html=1;backgroundOutline=1;" parent="_HMPg-w9CTH0mhzitJa7-1" vertex="1">
          <mxGeometry x="634.5" y="1072" width="150" height="60" as="geometry" />
        </mxCell>
        <mxCell id="_HMPg-w9CTH0mhzitJa7-84" value="" style="endArrow=classic;html=1;entryX=0.5;entryY=0;entryDx=0;entryDy=0;exitX=0.5;exitY=1;exitDx=0;exitDy=0;exitPerimeter=0;" parent="_HMPg-w9CTH0mhzitJa7-1" source="_HMPg-w9CTH0mhzitJa7-82" target="_HMPg-w9CTH0mhzitJa7-83" edge="1">
          <mxGeometry width="50" height="50" relative="1" as="geometry">
            <mxPoint x="695" y="1060" as="sourcePoint" />
            <mxPoint x="745" y="1010" as="targetPoint" />
          </mxGeometry>
        </mxCell>
        <mxCell id="_HMPg-w9CTH0mhzitJa7-85" value="Call Materialized View Service to Upsert Materialized View" style="shape=process;whiteSpace=wrap;html=1;backgroundOutline=1;" parent="_HMPg-w9CTH0mhzitJa7-1" vertex="1">
          <mxGeometry x="634.5" y="1269.75" width="150" height="60" as="geometry" />
        </mxCell>
        <mxCell id="_HMPg-w9CTH0mhzitJa7-86" value="&lt;font&gt;&lt;span style=&quot;font-size: 10px&quot;&gt;Is &lt;/span&gt;&lt;br&gt;&lt;div&gt;&lt;/div&gt;&lt;div&gt;&lt;span style=&quot;font-size: 10px&quot;&gt;Generate&lt;/span&gt;&lt;/div&gt;&lt;div&gt;&lt;span style=&quot;font-size: 10px&quot;&gt;Materialized View&lt;/span&gt;&lt;/div&gt;&lt;span style=&quot;font-size: 10px&quot;&gt;Message &lt;/span&gt;&lt;br&gt;&lt;span style=&quot;font-size: 10px&quot;&gt;found&lt;/span&gt;&lt;/font&gt;" style="rhombus;whiteSpace=wrap;html=1;" parent="_HMPg-w9CTH0mhzitJa7-1" vertex="1">
          <mxGeometry x="664.5" y="1157" width="90" height="92.75" as="geometry" />
        </mxCell>
        <mxCell id="_HMPg-w9CTH0mhzitJa7-87" value="" style="endArrow=classic;html=1;entryX=0.5;entryY=0;entryDx=0;entryDy=0;exitX=0.5;exitY=1;exitDx=0;exitDy=0;" parent="_HMPg-w9CTH0mhzitJa7-1" target="_HMPg-w9CTH0mhzitJa7-86" edge="1">
          <mxGeometry width="50" height="50" relative="1" as="geometry">
            <mxPoint x="709.5" y="1132" as="sourcePoint" />
            <mxPoint x="882.75" y="1117" as="targetPoint" />
          </mxGeometry>
        </mxCell>
        <mxCell id="_HMPg-w9CTH0mhzitJa7-88" value="" style="endArrow=classic;html=1;exitX=1;exitY=0.5;exitDx=0;exitDy=0;entryX=1;entryY=1;entryDx=0;entryDy=0;" parent="_HMPg-w9CTH0mhzitJa7-1" source="_HMPg-w9CTH0mhzitJa7-86" edge="1">
          <mxGeometry width="50" height="50" relative="1" as="geometry">
            <mxPoint x="762.75" y="1217" as="sourcePoint" />
            <mxPoint x="774.5" y="1132" as="targetPoint" />
            <Array as="points">
              <mxPoint x="774.75" y="1203" />
              <mxPoint x="774.75" y="1167" />
            </Array>
          </mxGeometry>
        </mxCell>
        <mxCell id="_HMPg-w9CTH0mhzitJa7-89" value="No" style="edgeLabel;html=1;align=center;verticalAlign=middle;resizable=0;points=[];" parent="_HMPg-w9CTH0mhzitJa7-88" vertex="1" connectable="0">
          <mxGeometry x="-0.5561" y="15" relative="1" as="geometry">
            <mxPoint x="24.75" y="-16.03" as="offset" />
          </mxGeometry>
        </mxCell>
        <mxCell id="_HMPg-w9CTH0mhzitJa7-90" value="" style="endArrow=classic;html=1;strokeColor=#000000;" parent="_HMPg-w9CTH0mhzitJa7-1" source="_HMPg-w9CTH0mhzitJa7-86" edge="1">
          <mxGeometry width="50" height="50" relative="1" as="geometry">
            <mxPoint x="709.5" y="1299.75" as="sourcePoint" />
            <mxPoint x="710" y="1270.0000000000005" as="targetPoint" />
          </mxGeometry>
        </mxCell>
        <mxCell id="_HMPg-w9CTH0mhzitJa7-91" value="Yes" style="edgeLabel;html=1;align=center;verticalAlign=middle;resizable=0;points=[];" parent="_HMPg-w9CTH0mhzitJa7-90" vertex="1" connectable="0">
          <mxGeometry x="0.3475" y="1" relative="1" as="geometry">
            <mxPoint x="11.8" y="-3.39" as="offset" />
          </mxGeometry>
        </mxCell>
        <mxCell id="_HMPg-w9CTH0mhzitJa7-92" value="" style="endArrow=none;dashed=1;html=1;dashPattern=1 3;strokeWidth=2;entryX=0;entryY=0.5;entryDx=0;entryDy=0;" parent="_HMPg-w9CTH0mhzitJa7-1" source="_HMPg-w9CTH0mhzitJa7-14" target="_HMPg-w9CTH0mhzitJa7-29" edge="1">
          <mxGeometry width="50" height="50" relative="1" as="geometry">
            <mxPoint x="463" y="121" as="sourcePoint" />
            <mxPoint x="533.7106781186548" y="71" as="targetPoint" />
            <Array as="points">
              <mxPoint x="550" y="71" />
              <mxPoint x="550" y="185" />
            </Array>
          </mxGeometry>
        </mxCell>
        <mxCell id="_HMPg-w9CTH0mhzitJa7-93" value="Ct Core File Storage" style="verticalLabelPosition=bottom;html=1;verticalAlign=top;align=center;strokeColor=none;fillColor=#00BEF2;shape=mxgraph.azure.azure_website;pointerEvents=1;" parent="_HMPg-w9CTH0mhzitJa7-1" vertex="1">
          <mxGeometry x="953" y="1309" width="50" height="50" as="geometry" />
        </mxCell>
        <mxCell id="_HMPg-w9CTH0mhzitJa7-94" value="" style="rounded=0;whiteSpace=wrap;html=1;" parent="_HMPg-w9CTH0mhzitJa7-1" vertex="1">
          <mxGeometry x="1017.5" y="946.25" width="252.25" height="412.75" as="geometry" />
        </mxCell>
        <mxCell id="_HMPg-w9CTH0mhzitJa7-96" value="MaterializedViewService" style="verticalLabelPosition=bottom;html=1;verticalAlign=top;align=center;strokeColor=none;fillColor=#00BEF2;shape=mxgraph.azure.service_endpoint;" parent="_HMPg-w9CTH0mhzitJa7-1" vertex="1">
          <mxGeometry x="1120" y="984.75" width="50" height="20" as="geometry" />
        </mxCell>
        <mxCell id="_HMPg-w9CTH0mhzitJa7-97" value="Upsert Materialized View to Blob Storage" style="shape=process;whiteSpace=wrap;html=1;backgroundOutline=1;" parent="_HMPg-w9CTH0mhzitJa7-1" vertex="1">
          <mxGeometry x="1067.75" y="1072" width="150" height="60" as="geometry" />
        </mxCell>
        <mxCell id="_HMPg-w9CTH0mhzitJa7-98" value="" style="endArrow=classic;html=1;strokeColor=#000000;entryX=0;entryY=0.5;entryDx=0;entryDy=0;" parent="_HMPg-w9CTH0mhzitJa7-1" source="_HMPg-w9CTH0mhzitJa7-85" target="_HMPg-w9CTH0mhzitJa7-97" edge="1">
          <mxGeometry width="50" height="50" relative="1" as="geometry">
            <mxPoint x="769.5" y="1349.75" as="sourcePoint" />
            <mxPoint x="840.2106781186548" y="1299.75" as="targetPoint" />
            <Array as="points">
              <mxPoint x="990" y="1300" />
              <mxPoint x="990" y="1102" />
            </Array>
          </mxGeometry>
        </mxCell>
        <mxCell id="_HMPg-w9CTH0mhzitJa7-99" value="" style="endArrow=classic;html=1;strokeColor=#000000;entryX=0;entryY=0.5;entryDx=0;entryDy=0;entryPerimeter=0;" parent="_HMPg-w9CTH0mhzitJa7-1" source="_HMPg-w9CTH0mhzitJa7-97" target="_HMPg-w9CTH0mhzitJa7-15" edge="1">
          <mxGeometry width="50" height="50" relative="1" as="geometry">
            <mxPoint x="1180" y="1152" as="sourcePoint" />
            <mxPoint x="1250.7106781186549" y="1102" as="targetPoint" />
          </mxGeometry>
        </mxCell>
        <mxCell id="_HMPg-w9CTH0mhzitJa7-100" value="" style="endArrow=classic;html=1;strokeColor=#000000;entryX=1;entryY=0.5;entryDx=0;entryDy=0;entryPerimeter=0;exitX=0.5;exitY=1;exitDx=0;exitDy=0;startArrow=classic;startFill=1;" parent="_HMPg-w9CTH0mhzitJa7-1" source="_HMPg-w9CTH0mhzitJa7-101" target="_HMPg-w9CTH0mhzitJa7-8" edge="1">
          <mxGeometry width="50" height="50" relative="1" as="geometry">
            <mxPoint x="1310" y="740" as="sourcePoint" />
            <mxPoint x="1290" y="770" as="targetPoint" />
            <Array as="points">
              <mxPoint x="1252" y="540" />
              <mxPoint x="1130" y="540" />
              <mxPoint x="1130" y="845" />
            </Array>
          </mxGeometry>
        </mxCell>
        <mxCell id="_HMPg-w9CTH0mhzitJa7-101" value="Get list of client categories" style="shape=process;whiteSpace=wrap;html=1;backgroundOutline=1;" parent="_HMPg-w9CTH0mhzitJa7-1" vertex="1">
          <mxGeometry x="1176.75" y="425" width="150" height="60" as="geometry" />
        </mxCell>
        <mxCell id="_HMPg-w9CTH0mhzitJa7-102" value="AZURE" style="verticalLabelPosition=bottom;html=1;verticalAlign=top;align=center;strokeColor=none;fillColor=#00BEF2;shape=mxgraph.azure.cloud;" parent="_HMPg-w9CTH0mhzitJa7-1" vertex="1">
          <mxGeometry x="20" y="143" width="50" height="32.5" as="geometry" />
        </mxCell>
        <mxCell id="_HMPg-w9CTH0mhzitJa7-114" value="" style="rounded=0;whiteSpace=wrap;html=1;" parent="_HMPg-w9CTH0mhzitJa7-1" vertex="1">
          <mxGeometry x="1150" y="558.25" width="390" height="202.75" as="geometry" />
        </mxCell>
        <mxCell id="_HMPg-w9CTH0mhzitJa7-115" value="" style="edgeStyle=orthogonalEdgeStyle;rounded=0;orthogonalLoop=1;jettySize=auto;html=1;" parent="_HMPg-w9CTH0mhzitJa7-1" source="_HMPg-w9CTH0mhzitJa7-116" target="_HMPg-w9CTH0mhzitJa7-119" edge="1">
          <mxGeometry relative="1" as="geometry" />
        </mxCell>
        <mxCell id="_HMPg-w9CTH0mhzitJa7-116" value="GetAdvisersHandler" style="verticalLabelPosition=bottom;html=1;verticalAlign=top;align=center;strokeColor=none;fillColor=#00BEF2;shape=mxgraph.azure.traffic_manager;pointerEvents=1;" parent="_HMPg-w9CTH0mhzitJa7-1" vertex="1">
          <mxGeometry x="1231.75" y="580.75" width="50" height="50" as="geometry" />
        </mxCell>
        <mxCell id="_HMPg-w9CTH0mhzitJa7-117" value="" style="edgeStyle=orthogonalEdgeStyle;rounded=0;orthogonalLoop=1;jettySize=auto;html=1;" parent="_HMPg-w9CTH0mhzitJa7-1" source="_HMPg-w9CTH0mhzitJa7-125" edge="1">
          <mxGeometry relative="1" as="geometry">
            <mxPoint x="1438" y="618.25" as="targetPoint" />
          </mxGeometry>
        </mxCell>
        <mxCell id="_HMPg-w9CTH0mhzitJa7-118" value="" style="endArrow=classic;html=1;exitX=1;exitY=0.5;exitDx=0;exitDy=0;entryX=0;entryY=0.5;entryDx=0;entryDy=0;" parent="_HMPg-w9CTH0mhzitJa7-1" source="_HMPg-w9CTH0mhzitJa7-119" target="_HMPg-w9CTH0mhzitJa7-125" edge="1">
          <mxGeometry width="50" height="50" relative="1" as="geometry">
            <mxPoint x="1320" y="741" as="sourcePoint" />
            <mxPoint x="1370" y="691" as="targetPoint" />
          </mxGeometry>
        </mxCell>
        <mxCell id="_HMPg-w9CTH0mhzitJa7-119" value="Get list of advisers" style="shape=process;whiteSpace=wrap;html=1;backgroundOutline=1;" parent="_HMPg-w9CTH0mhzitJa7-1" vertex="1">
          <mxGeometry x="1181.75" y="683" width="150" height="60" as="geometry" />
        </mxCell>
        <mxCell id="_HMPg-w9CTH0mhzitJa7-120" value="&lt;span&gt;StaticData&lt;/span&gt;&lt;span&gt;Found&lt;/span&gt;&lt;span&gt;&lt;br&gt;&lt;/span&gt;" style="verticalLabelPosition=bottom;html=1;verticalAlign=top;align=center;strokeColor=none;fillColor=#00BEF2;shape=mxgraph.azure.message;pointerEvents=1;" parent="_HMPg-w9CTH0mhzitJa7-1" vertex="1">
          <mxGeometry x="1413" y="580.75" width="50" height="37.5" as="geometry" />
        </mxCell>
        <mxCell id="_HMPg-w9CTH0mhzitJa7-122" value="" style="endArrow=none;dashed=1;html=1;dashPattern=1 3;strokeWidth=2;entryX=1;entryY=0.5;entryDx=0;entryDy=0;entryPerimeter=0;" parent="_HMPg-w9CTH0mhzitJa7-1" target="_HMPg-w9CTH0mhzitJa7-120" edge="1">
          <mxGeometry width="50" height="50" relative="1" as="geometry">
            <mxPoint x="790" y="1110" as="sourcePoint" />
            <mxPoint x="1366.75" y="477.5" as="targetPoint" />
            <Array as="points">
              <mxPoint x="890" y="1110" />
              <mxPoint x="890" y="870" />
              <mxPoint x="1520" y="870" />
              <mxPoint x="1520" y="599" />
            </Array>
          </mxGeometry>
        </mxCell>
        <mxCell id="_HMPg-w9CTH0mhzitJa7-124" value="" style="endArrow=classic;html=1;strokeColor=#000000;entryX=1.049;entryY=0.687;entryDx=0;entryDy=0;entryPerimeter=0;startArrow=classic;startFill=1;" parent="_HMPg-w9CTH0mhzitJa7-1" target="_HMPg-w9CTH0mhzitJa7-8" edge="1">
          <mxGeometry width="50" height="50" relative="1" as="geometry">
            <mxPoint x="1260" y="742" as="sourcePoint" />
            <mxPoint x="775.5" y="855" as="targetPoint" />
            <Array as="points">
              <mxPoint x="1260" y="854" />
            </Array>
          </mxGeometry>
        </mxCell>
        <mxCell id="_HMPg-w9CTH0mhzitJa7-125" value="&lt;span&gt;Publish a message with a list of advisers&lt;/span&gt;" style="shape=process;whiteSpace=wrap;html=1;backgroundOutline=1;" parent="_HMPg-w9CTH0mhzitJa7-1" vertex="1">
          <mxGeometry x="1368" y="683" width="140" height="60" as="geometry" />
        </mxCell>
        <mxCell id="_HMPg-w9CTH0mhzitJa7-126" value="PersistenceGenerationHandler" style="verticalLabelPosition=bottom;html=1;verticalAlign=top;align=center;strokeColor=none;fillColor=#00BEF2;shape=mxgraph.azure.traffic_manager;pointerEvents=1;" parent="_HMPg-w9CTH0mhzitJa7-1" vertex="1">
          <mxGeometry x="823" y="46.25" width="50" height="50" as="geometry" />
        </mxCell>
        <mxCell id="_HMPg-w9CTH0mhzitJa7-112" value="&lt;span&gt;GetAdvisersV1&lt;br&gt;&lt;/span&gt;" style="verticalLabelPosition=bottom;html=1;verticalAlign=top;align=center;strokeColor=none;fillColor=#00BEF2;shape=mxgraph.azure.message;pointerEvents=1;" parent="_HMPg-w9CTH0mhzitJa7-1" vertex="1">
          <mxGeometry x="979.75" y="440" width="50" height="37.5" as="geometry" />
        </mxCell>
        <mxCell id="_HMPg-w9CTH0mhzitJa7-131" value="" style="endArrow=classic;html=1;entryX=0.5;entryY=0;entryDx=0;entryDy=0;entryPerimeter=0;exitX=0.75;exitY=1;exitDx=0;exitDy=0;" parent="_HMPg-w9CTH0mhzitJa7-1" source="_HMPg-w9CTH0mhzitJa7-25" target="_HMPg-w9CTH0mhzitJa7-112" edge="1">
          <mxGeometry width="50" height="50" relative="1" as="geometry">
            <mxPoint x="953" y="440" as="sourcePoint" />
            <mxPoint x="1003" y="390" as="targetPoint" />
          </mxGeometry>
        </mxCell>
        <mxCell id="_HMPg-w9CTH0mhzitJa7-95" value="" style="endArrow=none;dashed=1;html=1;dashPattern=1 3;strokeWidth=2;entryX=1;entryY=0.5;entryDx=0;entryDy=0;entryPerimeter=0;exitX=1;exitY=0.75;exitDx=0;exitDy=0;" parent="_HMPg-w9CTH0mhzitJa7-1" source="_HMPg-w9CTH0mhzitJa7-83" target="_HMPg-w9CTH0mhzitJa7-55" edge="1">
          <mxGeometry width="50" height="50" relative="1" as="geometry">
            <mxPoint x="940" y="510" as="sourcePoint" />
            <mxPoint x="990" y="460" as="targetPoint" />
            <Array as="points">
              <mxPoint x="900" y="1117" />
              <mxPoint x="900" y="880" />
              <mxPoint x="1530" y="880" />
              <mxPoint x="1530" y="342" />
            </Array>
          </mxGeometry>
        </mxCell>
        <mxCell id="_HMPg-w9CTH0mhzitJa7-133" value="" style="endArrow=classic;html=1;strokeColor=#000000;entryX=1;entryY=0.14;entryDx=0;entryDy=0;entryPerimeter=0;exitX=0.5;exitY=1;exitDx=0;exitDy=0;startArrow=classic;startFill=1;" parent="_HMPg-w9CTH0mhzitJa7-1" source="_HMPg-w9CTH0mhzitJa7-21" target="_HMPg-w9CTH0mhzitJa7-8" edge="1">
          <mxGeometry width="50" height="50" relative="1" as="geometry">
            <mxPoint x="1158.75" y="174.75" as="sourcePoint" />
            <mxPoint x="753.5" y="833" as="targetPoint" />
            <Array as="points">
              <mxPoint x="1246" y="260" />
              <mxPoint x="1118" y="260" />
              <mxPoint x="1118" y="827" />
            </Array>
          </mxGeometry>
        </mxCell>
        <mxCell id="_HMPg-w9CTH0mhzitJa7-135" value="" style="endArrow=none;dashed=1;html=1;dashPattern=1 3;strokeWidth=2;entryX=0;entryY=0.5;entryDx=0;entryDy=0;entryPerimeter=0;strokeColor=#990000;" parent="_HMPg-w9CTH0mhzitJa7-1" target="_HMPg-w9CTH0mhzitJa7-20" edge="1">
          <mxGeometry width="50" height="50" relative="1" as="geometry">
            <mxPoint x="740" y="480" as="sourcePoint" />
            <mxPoint x="780" y="460" as="targetPoint" />
            <Array as="points">
              <mxPoint x="740" y="560" />
              <mxPoint x="1090" y="560" />
              <mxPoint x="1090" y="68" />
            </Array>
          </mxGeometry>
        </mxCell>
        <mxCell id="_HMPg-w9CTH0mhzitJa7-136" value="" style="endArrow=none;dashed=1;html=1;dashPattern=1 3;strokeWidth=2;entryX=0;entryY=0.5;entryDx=0;entryDy=0;entryPerimeter=0;strokeColor=#0000CC;" parent="_HMPg-w9CTH0mhzitJa7-1" source="_HMPg-w9CTH0mhzitJa7-77" target="_HMPg-w9CTH0mhzitJa7-52" edge="1">
          <mxGeometry width="50" height="50" relative="1" as="geometry">
            <mxPoint x="897" y="527.5" as="sourcePoint" />
            <mxPoint x="897" y="548.2106781186548" as="targetPoint" />
            <Array as="points">
              <mxPoint x="897" y="600" />
              <mxPoint x="1100" y="600" />
              <mxPoint x="1100" y="348" />
            </Array>
          </mxGeometry>
        </mxCell>
        <mxCell id="_HMPg-w9CTH0mhzitJa7-137" value="" style="endArrow=none;dashed=1;html=1;dashPattern=1 3;strokeWidth=2;entryX=0.5;entryY=1;entryDx=0;entryDy=0;entryPerimeter=0;strokeColor=#4D9900;" parent="_HMPg-w9CTH0mhzitJa7-1" target="_HMPg-w9CTH0mhzitJa7-112" edge="1">
          <mxGeometry width="50" height="50" relative="1" as="geometry">
            <mxPoint x="1232" y="610" as="sourcePoint" />
            <mxPoint x="1030" y="470" as="targetPoint" />
            <Array as="points">
              <mxPoint x="1005" y="610" />
            </Array>
          </mxGeometry>
        </mxCell>
        <mxCell id="_HMPg-w9CTH0mhzitJa7-138" value="" style="endArrow=none;dashed=1;html=1;dashPattern=1 3;strokeWidth=2;entryX=0.5;entryY=0;entryDx=0;entryDy=0;entryPerimeter=0;strokeColor=#009999;" parent="_HMPg-w9CTH0mhzitJa7-1" source="_HMPg-w9CTH0mhzitJa7-27" target="_HMPg-w9CTH0mhzitJa7-24" edge="1">
          <mxGeometry width="50" height="50" relative="1" as="geometry">
            <mxPoint x="1006.75" y="234.75" as="sourcePoint" />
            <mxPoint x="1077.4606781186549" y="184.75" as="targetPoint" />
            <Array as="points">
              <mxPoint x="1070" y="185" />
              <mxPoint x="1070" y="30" />
              <mxPoint x="1427" y="30" />
            </Array>
          </mxGeometry>
        </mxCell>
      </root>
    </mxGraphModel>
  </diagram>
</mxfile>
